STARTFONT 2.1
COMMENT $XConsortium: 6x13.bdf,v 1.13 92/04/02 14:24:50 gildea Exp $
COMMENT ""
COMMENT Characters above 127 designed and made by
COMMENT Thomas Bagli (pyramid!pcsbst!tom@uunet.UU.NET)
COMMENT PCS Computer Systeme, West Germany
COMMENT ""
FONT -Misc-Fixed-Medium-R-SemiCondensed--13-120-75-75-C-60-iso10646-0400
SIZE 13 78 78
FONTBOUNDINGBOX 6 13 0 -2
STARTPROPERTIES 23
FONTNAME_REGISTRY ""
FOUNDRY "Misc"
FAMILY_NAME "Fixed"
WEIGHT_NAME "Medium"
SLANT "R"
SETWIDTH_NAME "SemiCondensed"
ADD_STYLE_NAME ""
PIXEL_SIZE 13
POINT_SIZE 120
RESOLUTION_X 75
RESOLUTION_Y 75
SPACING "C"
AVERAGE_WIDTH 60
CHARSET_REGISTRY "iso10646"
CHARSET_ENCODING "0400"
DEFAULT_CHAR 0
FONT_DESCENT 2
FONT_ASCENT 11
COPYRIGHT "Public domain font.  Share and enjoy."
COPYRIGHT2 "Cyrillic and special glyphs copyright 2000 Dmitry Yu. Bolkhovityanov, bolkhov@inp.nsk.su"
SOURCEDATE "Sat Oct  7 19:43:49 2000"
PKGVERSION "1.1"
ASSEMBLER "cvtbdf.pl (Linux)"
ENDPROPERTIES
CHARS 462
STARTCHAR null
ENCODING 0
SWIDTH 461 0
DWIDTH 6 0
BBX 6 13 0 -2
BITMAP
00
78
78
78
78
78
78
78
78
78
78
78
00
ENDCHAR
STARTCHAR ctrlA
ENCODING 1
SWIDTH 461 0
DWIDTH 6 0
BBX 6 13 0 -2
BITMAP
00
00
00
00
00
20
70
F8
70
20
00
00
00
ENDCHAR
STARTCHAR ctrlB
ENCODING 2
SWIDTH 461 0
DWIDTH 6 0
BBX 6 13 0 -2
BITMAP
00
54
A8
54
A8
54
A8
54
A8
54
A8
54
A8
ENDCHAR
STARTCHAR ctrlC
ENCODING 3
SWIDTH 461 0
DWIDTH 6 0
BBX 6 13 0 -2
BITMAP
00
00
00
00
A0
A0
E0
A0
A0
70
20
20
20
ENDCHAR
STARTCHAR ctrlD
ENCODING 4
SWIDTH 461 0
DWIDTH 6 0
BBX 6 13 0 -2
BITMAP
00
00
00
00
E0
80
C0
80
F0
40
60
40
40
ENDCHAR
STARTCHAR ctrlE
ENCODING 5
SWIDTH 461 0
DWIDTH 6 0
BBX 6 13 0 -2
BITMAP
00
00
00
00
70
80
80
70
70
48
70
50
48
ENDCHAR
STARTCHAR ctrlF
ENCODING 6
SWIDTH 461 0
DWIDTH 6 0
BBX 6 13 0 -2
BITMAP
00
00
00
00
80
80
80
E0
70
40
60
40
40
ENDCHAR
STARTCHAR ctrlG
ENCODING 7
SWIDTH 461 0
DWIDTH 6 0
BBX 6 13 0 -2
BITMAP
00
00
60
90
90
60
00
00
00
00
00
00
00
ENDCHAR
STARTCHAR ctrlH
ENCODING 8
SWIDTH 461 0
DWIDTH 6 0
BBX 6 13 0 -2
BITMAP
00
00
00
00
20
20
F8
20
20
00
F8
00
00
ENDCHAR
STARTCHAR ctrlI
ENCODING 9
SWIDTH 461 0
DWIDTH 6 0
BBX 6 13 0 -2
BITMAP
00
00
00
00
88
C8
A8
98
88
40
40
40
78
ENDCHAR
STARTCHAR ctrlJ
ENCODING 10
SWIDTH 461 0
DWIDTH 6 0
BBX 6 13 0 -2
BITMAP
00
00
00
00
88
88
50
20
00
F8
20
20
20
ENDCHAR
STARTCHAR ldcornsqlr
ENCODING 11
SWIDTH 461 0
DWIDTH 6 0
BBX 6 13 0 -2
BITMAP
20
20
20
20
20
20
20
E0
00
00
00
00
00
ENDCHAR
STARTCHAR ldcornsqur
ENCODING 12
SWIDTH 461 0
DWIDTH 6 0
BBX 6 13 0 -2
BITMAP
00
00
00
00
00
00
00
E0
20
20
20
20
20
ENDCHAR
STARTCHAR ldcornsqul
ENCODING 13
SWIDTH 461 0
DWIDTH 6 0
BBX 6 13 0 -2
BITMAP
00
00
00
00
00
00
00
3C
20
20
20
20
20
ENDCHAR
STARTCHAR ldcornsqll
ENCODING 14
SWIDTH 461 0
DWIDTH 6 0
BBX 6 13 0 -2
BITMAP
20
20
20
20
20
20
20
3C
00
00
00
00
00
ENDCHAR
STARTCHAR ldcross
ENCODING 15
SWIDTH 461 0
DWIDTH 6 0
BBX 6 13 0 -2
BITMAP
20
20
20
20
20
20
20
FC
20
20
20
20
20
ENDCHAR
STARTCHAR ctrlP
ENCODING 16
SWIDTH 461 0
DWIDTH 6 0
BBX 6 13 0 -2
BITMAP
00
00
00
FC
00
00
00
00
00
00
00
00
00
ENDCHAR
STARTCHAR ctrlQ
ENCODING 17
SWIDTH 461 0
DWIDTH 6 0
BBX 6 13 0 -2
BITMAP
00
00
00
00
00
FC
00
00
00
00
00
00
00
ENDCHAR
STARTCHAR ldhorizontal
ENCODING 18
SWIDTH 461 0
DWIDTH 6 0
BBX 6 13 0 -2
BITMAP
00
00
00
00
00
00
00
FC
00
00
00
00
00
ENDCHAR
STARTCHAR ctrlS
ENCODING 19
SWIDTH 461 0
DWIDTH 6 0
BBX 6 13 0 -2
BITMAP
00
00
00
00
00
00
00
00
00
FC
00
00
00
ENDCHAR
STARTCHAR ctrlT
ENCODING 20
SWIDTH 461 0
DWIDTH 6 0
BBX 6 13 0 -2
BITMAP
00
00
00
00
00
00
00
00
00
00
00
FC
00
ENDCHAR
STARTCHAR ldteelft
ENCODING 21
SWIDTH 461 0
DWIDTH 6 0
BBX 6 13 0 -2
BITMAP
20
20
20
20
20
20
20
3C
20
20
20
20
20
ENDCHAR
STARTCHAR ldteert
ENCODING 22
SWIDTH 461 0
DWIDTH 6 0
BBX 6 13 0 -2
BITMAP
20
20
20
20
20
20
20
E0
20
20
20
20
20
ENDCHAR
STARTCHAR ldteebt
ENCODING 23
SWIDTH 461 0
DWIDTH 6 0
BBX 6 13 0 -2
BITMAP
20
20
20
20
20
20
20
FC
00
00
00
00
00
ENDCHAR
STARTCHAR ldteetp
ENCODING 24
SWIDTH 461 0
DWIDTH 6 0
BBX 6 13 0 -2
BITMAP
00
00
00
00
00
00
00
FC
20
20
20
20
20
ENDCHAR
STARTCHAR ldvertical
ENCODING 25
SWIDTH 461 0
DWIDTH 6 0
BBX 6 13 0 -2
BITMAP
20
20
20
20
20
20
20
20
20
20
20
20
20
ENDCHAR
STARTCHAR ctrlZ
ENCODING 26
SWIDTH 461 0
DWIDTH 6 0
BBX 6 13 0 -2
BITMAP
00
00
00
08
10
20
40
20
10
08
F8
00
00
ENDCHAR
STARTCHAR ctrlBRL
ENCODING 27
SWIDTH 461 0
DWIDTH 6 0
BBX 6 13 0 -2
BITMAP
00
00
00
80
40
20
10
20
40
80
F8
00
00
ENDCHAR
STARTCHAR ctrlBSLASH
ENCODING 28
SWIDTH 461 0
DWIDTH 6 0
BBX 6 13 0 -2
BITMAP
00
00
00
00
00
F8
50
50
50
50
90
00
00
ENDCHAR
STARTCHAR ctrlBRR
ENCODING 29
SWIDTH 461 0
DWIDTH 6 0
BBX 6 13 0 -2
BITMAP
00
00
00
00
00
08
F8
20
F8
80
00
00
00
ENDCHAR
STARTCHAR ctrlCARET
ENCODING 30
SWIDTH 461 0
DWIDTH 6 0
BBX 6 13 0 -2
BITMAP
00
00
30
48
40
40
E0
40
40
48
B0
00
00
ENDCHAR
STARTCHAR ctrlUND
ENCODING 31
SWIDTH 461 0
DWIDTH 6 0
BBX 6 13 0 -2
BITMAP
00
00
00
00
00
00
00
00
20
00
00
00
00
ENDCHAR
STARTCHAR space
ENCODING 32
SWIDTH 461 0
DWIDTH 6 0
BBX 6 13 0 -2
BITMAP
00
00
00
00
00
00
00
00
00
00
00
00
00
ENDCHAR
STARTCHAR exclam
ENCODING 33
SWIDTH 461 0
DWIDTH 6 0
BBX 6 13 0 -2
BITMAP
00
00
20
20
20
20
20
20
20
00
20
00
00
ENDCHAR
STARTCHAR quotedbl
ENCODING 34
SWIDTH 461 0
DWIDTH 6 0
BBX 6 13 0 -2
BITMAP
00
00
50
50
50
00
00
00
00
00
00
00
00
ENDCHAR
STARTCHAR numbersign
ENCODING 35
SWIDTH 461 0
DWIDTH 6 0
BBX 6 13 0 -2
BITMAP
00
00
00
50
50
F8
50
F8
50
50
00
00
00
ENDCHAR
STARTCHAR dollar
ENCODING 36
SWIDTH 461 0
DWIDTH 6 0
BBX 6 13 0 -2
BITMAP
00
00
20
78
A0
A0
70
28
28
F0
20
00
00
ENDCHAR
STARTCHAR percent
ENCODING 37
SWIDTH 461 0
DWIDTH 6 0
BBX 6 13 0 -2
BITMAP
00
00
48
A8
50
10
20
40
50
A8
90
00
00
ENDCHAR
STARTCHAR ampersand
ENCODING 38
SWIDTH 461 0
DWIDTH 6 0
BBX 6 13 0 -2
BITMAP
00
00
40
A0
A0
40
A0
98
90
68
00
00
00
ENDCHAR
STARTCHAR quotesingle
ENCODING 39
SWIDTH 461 0
DWIDTH 6 0
BBX 6 13 0 -2
BITMAP
00
00
20
20
20
00
00
00
00
00
00
00
00
ENDCHAR
STARTCHAR parenleft
ENCODING 40
SWIDTH 461 0
DWIDTH 6 0
BBX 6 13 0 -2
BITMAP
00
00
10
20
20
40
40
40
20
20
10
00
00
ENDCHAR
STARTCHAR parenright
ENCODING 41
SWIDTH 461 0
DWIDTH 6 0
BBX 6 13 0 -2
BITMAP
00
00
40
20
20
10
10
10
20
20
40
00
00
ENDCHAR
STARTCHAR asterisk
ENCODING 42
SWIDTH 461 0
DWIDTH 6 0
BBX 6 13 0 -2
BITMAP
00
00
00
20
A8
F8
70
F8
A8
20
00
00
00
ENDCHAR
STARTCHAR plus
ENCODING 43
SWIDTH 461 0
DWIDTH 6 0
BBX 6 13 0 -2
BITMAP
00
00
00
00
20
20
F8
20
20
00
00
00
00
ENDCHAR
STARTCHAR comma
ENCODING 44
SWIDTH 461 0
DWIDTH 6 0
BBX 6 13 0 -2
BITMAP
00
00
00
00
00
00
00
00
00
30
20
40
00
ENDCHAR
STARTCHAR minus
ENCODING 45
SWIDTH 461 0
DWIDTH 6 0
BBX 6 13 0 -2
BITMAP
00
00
00
00
00
00
F8
00
00
00
00
00
00
ENDCHAR
STARTCHAR period
ENCODING 46
SWIDTH 461 0
DWIDTH 6 0
BBX 6 13 0 -2
BITMAP
00
00
00
00
00
00
00
00
00
20
70
20
00
ENDCHAR
STARTCHAR slash
ENCODING 47
SWIDTH 461 0
DWIDTH 6 0
BBX 6 13 0 -2
BITMAP
00
00
08
08
10
10
20
40
40
80
80
00
00
ENDCHAR
STARTCHAR zero
ENCODING 48
SWIDTH 461 0
DWIDTH 6 0
BBX 6 13 0 -2
BITMAP
00
00
20
50
88
88
88
88
88
50
20
00
00
ENDCHAR
STARTCHAR one
ENCODING 49
SWIDTH 461 0
DWIDTH 6 0
BBX 6 13 0 -2
BITMAP
00
00
20
60
A0
20
20
20
20
20
F8
00
00
ENDCHAR
STARTCHAR two
ENCODING 50
SWIDTH 461 0
DWIDTH 6 0
BBX 6 13 0 -2
BITMAP
00
00
70
88
88
08
10
20
40
80
F8
00
00
ENDCHAR
STARTCHAR three
ENCODING 51
SWIDTH 461 0
DWIDTH 6 0
BBX 6 13 0 -2
BITMAP
00
00
F8
08
10
20
70
08
08
88
70
00
00
ENDCHAR
STARTCHAR four
ENCODING 52
SWIDTH 461 0
DWIDTH 6 0
BBX 6 13 0 -2
BITMAP
00
00
10
10
30
50
50
90
F8
10
10
00
00
ENDCHAR
STARTCHAR five
ENCODING 53
SWIDTH 461 0
DWIDTH 6 0
BBX 6 13 0 -2
BITMAP
00
00
F8
80
80
B0
C8
08
08
88
70
00
00
ENDCHAR
STARTCHAR six
ENCODING 54
SWIDTH 461 0
DWIDTH 6 0
BBX 6 13 0 -2
BITMAP
00
00
70
88
80
80
F0
88
88
88
70
00
00
ENDCHAR
STARTCHAR seven
ENCODING 55
SWIDTH 461 0
DWIDTH 6 0
BBX 6 13 0 -2
BITMAP
00
00
F8
08
10
10
20
20
40
40
40
00
00
ENDCHAR
STARTCHAR eight
ENCODING 56
SWIDTH 461 0
DWIDTH 6 0
BBX 6 13 0 -2
BITMAP
00
00
70
88
88
88
70
88
88
88
70
00
00
ENDCHAR
STARTCHAR nine
ENCODING 57
SWIDTH 461 0
DWIDTH 6 0
BBX 6 13 0 -2
BITMAP
00
00
70
88
88
88
78
08
08
88
70
00
00
ENDCHAR
STARTCHAR colon
ENCODING 58
SWIDTH 461 0
DWIDTH 6 0
BBX 6 13 0 -2
BITMAP
00
00
00
00
20
70
20
00
00
20
70
20
00
ENDCHAR
STARTCHAR semicolon
ENCODING 59
SWIDTH 461 0
DWIDTH 6 0
BBX 6 13 0 -2
BITMAP
00
00
00
00
20
70
20
00
00
30
20
40
00
ENDCHAR
STARTCHAR less
ENCODING 60
SWIDTH 461 0
DWIDTH 6 0
BBX 6 13 0 -2
BITMAP
00
00
08
10
20
40
80
40
20
10
08
00
00
ENDCHAR
STARTCHAR equal
ENCODING 61
SWIDTH 461 0
DWIDTH 6 0
BBX 6 13 0 -2
BITMAP
00
00
00
00
00
F8
00
00
F8
00
00
00
00
ENDCHAR
STARTCHAR greater
ENCODING 62
SWIDTH 461 0
DWIDTH 6 0
BBX 6 13 0 -2
BITMAP
00
00
80
40
20
10
08
10
20
40
80
00
00
ENDCHAR
STARTCHAR question
ENCODING 63
SWIDTH 461 0
DWIDTH 6 0
BBX 6 13 0 -2
BITMAP
00
00
70
88
88
08
10
20
20
00
20
00
00
ENDCHAR
STARTCHAR at
ENCODING 64
SWIDTH 461 0
DWIDTH 6 0
BBX 6 13 0 -2
BITMAP
00
00
70
88
88
98
A8
A8
B0
80
78
00
00
ENDCHAR
STARTCHAR A
ENCODING 65
SWIDTH 461 0
DWIDTH 6 0
BBX 6 13 0 -2
BITMAP
00
00
20
50
88
88
88
F8
88
88
88
00
00
ENDCHAR
STARTCHAR B
ENCODING 66
SWIDTH 461 0
DWIDTH 6 0
BBX 6 13 0 -2
BITMAP
00
00
F0
48
48
48
70
48
48
48
F0
00
00
ENDCHAR
STARTCHAR C
ENCODING 67
SWIDTH 461 0
DWIDTH 6 0
BBX 6 13 0 -2
BITMAP
00
00
70
88
80
80
80
80
80
88
70
00
00
ENDCHAR
STARTCHAR D
ENCODING 68
SWIDTH 461 0
DWIDTH 6 0
BBX 6 13 0 -2
BITMAP
00
00
F0
48
48
48
48
48
48
48
F0
00
00
ENDCHAR
STARTCHAR E
ENCODING 69
SWIDTH 461 0
DWIDTH 6 0
BBX 6 13 0 -2
BITMAP
00
00
F8
80
80
80
F0
80
80
80
F8
00
00
ENDCHAR
STARTCHAR F
ENCODING 70
SWIDTH 461 0
DWIDTH 6 0
BBX 6 13 0 -2
BITMAP
00
00
F8
80
80
80
F0
80
80
80
80
00
00
ENDCHAR
STARTCHAR G
ENCODING 71
SWIDTH 461 0
DWIDTH 6 0
BBX 6 13 0 -2
BITMAP
00
00
70
88
80
80
80
98
88
88
70
00
00
ENDCHAR
STARTCHAR H
ENCODING 72
SWIDTH 461 0
DWIDTH 6 0
BBX 6 13 0 -2
BITMAP
00
00
88
88
88
88
F8
88
88
88
88
00
00
ENDCHAR
STARTCHAR I
ENCODING 73
SWIDTH 461 0
DWIDTH 6 0
BBX 6 13 0 -2
BITMAP
00
00
70
20
20
20
20
20
20
20
70
00
00
ENDCHAR
STARTCHAR J
ENCODING 74
SWIDTH 461 0
DWIDTH 6 0
BBX 6 13 0 -2
BITMAP
00
00
38
10
10
10
10
10
10
90
60
00
00
ENDCHAR
STARTCHAR K
ENCODING 75
SWIDTH 461 0
DWIDTH 6 0
BBX 6 13 0 -2
BITMAP
00
00
88
88
90
A0
C0
A0
90
88
88
00
00
ENDCHAR
STARTCHAR L
ENCODING 76
SWIDTH 461 0
DWIDTH 6 0
BBX 6 13 0 -2
BITMAP
00
00
80
80
80
80
80
80
80
80
F8
00
00
ENDCHAR
STARTCHAR M
ENCODING 77
SWIDTH 461 0
DWIDTH 6 0
BBX 6 13 0 -2
BITMAP
00
00
88
88
D8
A8
A8
88
88
88
88
00
00
ENDCHAR
STARTCHAR N
ENCODING 78
SWIDTH 461 0
DWIDTH 6 0
BBX 6 13 0 -2
BITMAP
00
00
88
C8
C8
A8
A8
98
98
88
88
00
00
ENDCHAR
STARTCHAR O
ENCODING 79
SWIDTH 461 0
DWIDTH 6 0
BBX 6 13 0 -2
BITMAP
00
00
70
88
88
88
88
88
88
88
70
00
00
ENDCHAR
STARTCHAR P
ENCODING 80
SWIDTH 461 0
DWIDTH 6 0
BBX 6 13 0 -2
BITMAP
00
00
F0
88
88
88
F0
80
80
80
80
00
00
ENDCHAR
STARTCHAR Q
ENCODING 81
SWIDTH 461 0
DWIDTH 6 0
BBX 6 13 0 -2
BITMAP
00
00
70
88
88
88
88
88
88
A8
70
08
00
ENDCHAR
STARTCHAR R
ENCODING 82
SWIDTH 461 0
DWIDTH 6 0
BBX 6 13 0 -2
BITMAP
00
00
F0
88
88
88
F0
A0
90
88
88
00
00
ENDCHAR
STARTCHAR S
ENCODING 83
SWIDTH 461 0
DWIDTH 6 0
BBX 6 13 0 -2
BITMAP
00
00
70
88
80
80
70
08
08
88
70
00
00
ENDCHAR
STARTCHAR T
ENCODING 84
SWIDTH 461 0
DWIDTH 6 0
BBX 6 13 0 -2
BITMAP
00
00
F8
20
20
20
20
20
20
20
20
00
00
ENDCHAR
STARTCHAR U
ENCODING 85
SWIDTH 461 0
DWIDTH 6 0
BBX 6 13 0 -2
BITMAP
00
00
88
88
88
88
88
88
88
88
70
00
00
ENDCHAR
STARTCHAR V
ENCODING 86
SWIDTH 461 0
DWIDTH 6 0
BBX 6 13 0 -2
BITMAP
00
00
88
88
88
88
50
50
50
20
20
00
00
ENDCHAR
STARTCHAR W
ENCODING 87
SWIDTH 461 0
DWIDTH 6 0
BBX 6 13 0 -2
BITMAP
00
00
88
88
88
88
A8
A8
A8
D8
88
00
00
ENDCHAR
STARTCHAR X
ENCODING 88
SWIDTH 461 0
DWIDTH 6 0
BBX 6 13 0 -2
BITMAP
00
00
88
88
50
50
20
50
50
88
88
00
00
ENDCHAR
STARTCHAR Y
ENCODING 89
SWIDTH 461 0
DWIDTH 6 0
BBX 6 13 0 -2
BITMAP
00
00
88
88
50
50
20
20
20
20
20
00
00
ENDCHAR
STARTCHAR Z
ENCODING 90
SWIDTH 461 0
DWIDTH 6 0
BBX 6 13 0 -2
BITMAP
00
00
F8
08
10
10
20
40
40
80
F8
00
00
ENDCHAR
STARTCHAR bracketleft
ENCODING 91
SWIDTH 461 0
DWIDTH 6 0
BBX 6 13 0 -2
BITMAP
00
00
70
40
40
40
40
40
40
40
70
00
00
ENDCHAR
STARTCHAR backslash
ENCODING 92
SWIDTH 461 0
DWIDTH 6 0
BBX 6 13 0 -2
BITMAP
00
00
80
80
40
40
20
10
10
08
08
00
00
ENDCHAR
STARTCHAR bracketright
ENCODING 93
SWIDTH 461 0
DWIDTH 6 0
BBX 6 13 0 -2
BITMAP
00
00
70
10
10
10
10
10
10
10
70
00
00
ENDCHAR
STARTCHAR asciicircum
ENCODING 94
SWIDTH 461 0
DWIDTH 6 0
BBX 6 13 0 -2
BITMAP
00
00
20
50
88
00
00
00
00
00
00
00
00
ENDCHAR
STARTCHAR underscore
ENCODING 95
SWIDTH 461 0
DWIDTH 6 0
BBX 6 13 0 -2
BITMAP
00
00
00
00
00
00
00
00
00
00
00
F8
00
ENDCHAR
STARTCHAR grave
ENCODING 96
SWIDTH 461 0
DWIDTH 6 0
BBX 6 13 0 -2
BITMAP
00
20
10
00
00
00
00
00
00
00
00
00
00
ENDCHAR
STARTCHAR a
ENCODING 97
SWIDTH 461 0
DWIDTH 6 0
BBX 6 13 0 -2
BITMAP
00
00
00
00
00
70
08
78
88
88
78
00
00
ENDCHAR
STARTCHAR b
ENCODING 98
SWIDTH 461 0
DWIDTH 6 0
BBX 6 13 0 -2
BITMAP
00
00
80
80
80
F0
88
88
88
88
F0
00
00
ENDCHAR
STARTCHAR c
ENCODING 99
SWIDTH 461 0
DWIDTH 6 0
BBX 6 13 0 -2
BITMAP
00
00
00
00
00
70
88
80
80
88
70
00
00
ENDCHAR
STARTCHAR d
ENCODING 100
SWIDTH 461 0
DWIDTH 6 0
BBX 6 13 0 -2
BITMAP
00
00
08
08
08
78
88
88
88
88
78
00
00
ENDCHAR
STARTCHAR e
ENCODING 101
SWIDTH 461 0
DWIDTH 6 0
BBX 6 13 0 -2
BITMAP
00
00
00
00
00
70
88
F8
80
88
70
00
00
ENDCHAR
STARTCHAR f
ENCODING 102
SWIDTH 461 0
DWIDTH 6 0
BBX 6 13 0 -2
BITMAP
00
00
30
48
40
40
F0
40
40
40
40
00
00
ENDCHAR
STARTCHAR g
ENCODING 103
SWIDTH 461 0
DWIDTH 6 0
BBX 6 13 0 -2
BITMAP
00
00
00
00
00
70
88
88
88
78
08
88
70
ENDCHAR
STARTCHAR h
ENCODING 104
SWIDTH 461 0
DWIDTH 6 0
BBX 6 13 0 -2
BITMAP
00
00
80
80
80
B0
C8
88
88
88
88
00
00
ENDCHAR
STARTCHAR i
ENCODING 105
SWIDTH 461 0
DWIDTH 6 0
BBX 6 13 0 -2
BITMAP
00
00
00
20
00
60
20
20
20
20
70
00
00
ENDCHAR
STARTCHAR j
ENCODING 106
SWIDTH 461 0
DWIDTH 6 0
BBX 6 13 0 -2
BITMAP
00
00
00
10
00
30
10
10
10
10
90
90
60
ENDCHAR
STARTCHAR k
ENCODING 107
SWIDTH 461 0
DWIDTH 6 0
BBX 6 13 0 -2
BITMAP
00
00
80
80
80
90
A0
C0
A0
90
88
00
00
ENDCHAR
STARTCHAR l
ENCODING 108
SWIDTH 461 0
DWIDTH 6 0
BBX 6 13 0 -2
BITMAP
00
00
60
20
20
20
20
20
20
20
70
00
00
ENDCHAR
STARTCHAR m
ENCODING 109
SWIDTH 461 0
DWIDTH 6 0
BBX 6 13 0 -2
BITMAP
00
00
00
00
00
D0
A8
A8
A8
A8
88
00
00
ENDCHAR
STARTCHAR n
ENCODING 110
SWIDTH 461 0
DWIDTH 6 0
BBX 6 13 0 -2
BITMAP
00
00
00
00
00
B0
C8
88
88
88
88
00
00
ENDCHAR
STARTCHAR o
ENCODING 111
SWIDTH 461 0
DWIDTH 6 0
BBX 6 13 0 -2
BITMAP
00
00
00
00
00
70
88
88
88
88
70
00
00
ENDCHAR
STARTCHAR p
ENCODING 112
SWIDTH 461 0
DWIDTH 6 0
BBX 6 13 0 -2
BITMAP
00
00
00
00
00
F0
88
88
88
F0
80
80
80
ENDCHAR
STARTCHAR q
ENCODING 113
SWIDTH 461 0
DWIDTH 6 0
BBX 6 13 0 -2
BITMAP
00
00
00
00
00
78
88
88
88
78
08
08
08
ENDCHAR
STARTCHAR r
ENCODING 114
SWIDTH 461 0
DWIDTH 6 0
BBX 6 13 0 -2
BITMAP
00
00
00
00
00
B0
C8
80
80
80
80
00
00
ENDCHAR
STARTCHAR s
ENCODING 115
SWIDTH 461 0
DWIDTH 6 0
BBX 6 13 0 -2
BITMAP
00
00
00
00
00
70
88
60
10
88
70
00
00
ENDCHAR
STARTCHAR t
ENCODING 116
SWIDTH 461 0
DWIDTH 6 0
BBX 6 13 0 -2
BITMAP
00
00
00
40
40
F0
40
40
40
48
30
00
00
ENDCHAR
STARTCHAR u
ENCODING 117
SWIDTH 461 0
DWIDTH 6 0
BBX 6 13 0 -2
BITMAP
00
00
00
00
00
88
88
88
88
98
68
00
00
ENDCHAR
STARTCHAR v
ENCODING 118
SWIDTH 461 0
DWIDTH 6 0
BBX 6 13 0 -2
BITMAP
00
00
00
00
00
88
88
88
50
50
20
00
00
ENDCHAR
STARTCHAR w
ENCODING 119
SWIDTH 461 0
DWIDTH 6 0
BBX 6 13 0 -2
BITMAP
00
00
00
00
00
88
88
A8
A8
A8
50
00
00
ENDCHAR
STARTCHAR x
ENCODING 120
SWIDTH 461 0
DWIDTH 6 0
BBX 6 13 0 -2
BITMAP
00
00
00
00
00
88
50
20
20
50
88
00
00
ENDCHAR
STARTCHAR y
ENCODING 121
SWIDTH 461 0
DWIDTH 6 0
BBX 6 13 0 -2
BITMAP
00
00
00
00
00
88
88
88
98
68
08
88
70
ENDCHAR
STARTCHAR z
ENCODING 122
SWIDTH 461 0
DWIDTH 6 0
BBX 6 13 0 -2
BITMAP
00
00
00
00
00
F8
10
20
40
80
F8
00
00
ENDCHAR
STARTCHAR braceleft
ENCODING 123
SWIDTH 461 0
DWIDTH 6 0
BBX 6 13 0 -2
BITMAP
00
00
18
20
20
20
C0
20
20
20
18
00
00
ENDCHAR
STARTCHAR bar
ENCODING 124
SWIDTH 461 0
DWIDTH 6 0
BBX 6 13 0 -2
BITMAP
00
00
20
20
20
20
20
20
20
20
20
00
00
ENDCHAR
STARTCHAR braceright
ENCODING 125
SWIDTH 461 0
DWIDTH 6 0
BBX 6 13 0 -2
BITMAP
00
00
C0
20
20
20
18
20
20
20
C0
00
00
ENDCHAR
STARTCHAR asciitilde
ENCODING 126
SWIDTH 461 0
DWIDTH 6 0
BBX 6 13 0 -2
BITMAP
00
00
48
A8
90
00
00
00
00
00
00
00
00
ENDCHAR
STARTCHAR delete
ENCODING 127
SWIDTH 461 0
DWIDTH 6 0
BBX 6 13 0 -2
BITMAP
00
00
00
00
00
00
00
00
00
00
00
00
00
ENDCHAR
STARTCHAR space
ENCODING 160
SWIDTH 461 0
DWIDTH 6 0
BBX 6 13 0 -2
BITMAP
00
00
00
00
00
00
00
00
00
00
00
00
00
ENDCHAR
STARTCHAR exclamdown
ENCODING 161
SWIDTH 461 0
DWIDTH 6 0
BBX 6 13 0 -2
BITMAP
00
00
20
00
20
20
20
20
20
20
20
00
00
ENDCHAR
STARTCHAR cent
ENCODING 162
SWIDTH 461 0
DWIDTH 6 0
BBX 6 13 0 -2
BITMAP
00
00
20
70
A8
A0
A0
A8
70
20
00
00
00
ENDCHAR
STARTCHAR sterling
ENCODING 163
SWIDTH 461 0
DWIDTH 6 0
BBX 6 13 0 -2
BITMAP
00
00
30
48
40
40
E0
40
40
48
B0
00
00
ENDCHAR
STARTCHAR currency
ENCODING 164
SWIDTH 461 0
DWIDTH 6 0
BBX 6 13 0 -2
BITMAP
00
00
00
00
88
70
50
50
70
88
00
00
00
ENDCHAR
STARTCHAR yen
ENCODING 165
SWIDTH 461 0
DWIDTH 6 0
BBX 6 13 0 -2
BITMAP
00
00
88
88
50
50
F8
20
F8
20
20
00
00
ENDCHAR
STARTCHAR brokenbar
ENCODING 166
SWIDTH 461 0
DWIDTH 6 0
BBX 6 13 0 -2
BITMAP
00
00
20
20
20
20
00
20
20
20
20
00
00
ENDCHAR
STARTCHAR section
ENCODING 167
SWIDTH 461 0
DWIDTH 6 0
BBX 6 13 0 -2
BITMAP
00
30
48
40
30
48
48
30
08
48
30
00
00
ENDCHAR
STARTCHAR dieresis
ENCODING 168
SWIDTH 461 0
DWIDTH 6 0
BBX 6 13 0 -2
BITMAP
00
00
D8
00
00
00
00
00
00
00
00
00
00
ENDCHAR
STARTCHAR copyright
ENCODING 169
SWIDTH 461 0
DWIDTH 6 0
BBX 6 13 0 -2
BITMAP
00
70
88
A8
D8
C8
D8
A8
88
70
00
00
00
ENDCHAR
STARTCHAR ordfeminine
ENCODING 170
SWIDTH 461 0
DWIDTH 6 0
BBX 6 13 0 -2
BITMAP
00
00
70
08
78
88
78
00
F8
00
00
00
00
ENDCHAR
STARTCHAR guillemotleft
ENCODING 171
SWIDTH 461 0
DWIDTH 6 0
BBX 6 13 0 -2
BITMAP
00
00
00
00
28
50
A0
A0
50
28
00
00
00
ENDCHAR
STARTCHAR logicalnot
ENCODING 172
SWIDTH 461 0
DWIDTH 6 0
BBX 6 13 0 -2
BITMAP
00
00
00
00
00
00
F8
08
08
00
00
00
00
ENDCHAR
STARTCHAR hyphen
ENCODING 173
SWIDTH 461 0
DWIDTH 6 0
BBX 6 13 0 -2
BITMAP
00
00
00
00
00
00
F8
00
00
00
00
00
00
ENDCHAR
STARTCHAR registered
ENCODING 174
SWIDTH 461 0
DWIDTH 6 0
BBX 6 13 0 -2
BITMAP
00
70
88
E8
D8
D8
E8
D8
88
70
00
00
00
ENDCHAR
STARTCHAR macron
ENCODING 175
SWIDTH 461 0
DWIDTH 6 0
BBX 6 13 0 -2
BITMAP
00
00
F8
00
00
00
00
00
00
00
00
00
00
ENDCHAR
STARTCHAR degree
ENCODING 176
SWIDTH 461 0
DWIDTH 6 0
BBX 6 13 0 -2
BITMAP
00
00
30
48
48
30
00
00
00
00
00
00
00
ENDCHAR
STARTCHAR plusminus
ENCODING 177
SWIDTH 461 0
DWIDTH 6 0
BBX 6 13 0 -2
BITMAP
00
00
00
20
20
F8
20
20
00
F8
00
00
00
ENDCHAR
STARTCHAR twosuperior
ENCODING 178
SWIDTH 461 0
DWIDTH 6 0
BBX 6 13 0 -2
BITMAP
00
40
A0
20
40
E0
00
00
00
00
00
00
00
ENDCHAR
STARTCHAR threesuperior
ENCODING 179
SWIDTH 461 0
DWIDTH 6 0
BBX 6 13 0 -2
BITMAP
00
40
A0
40
20
C0
00
00
00
00
00
00
00
ENDCHAR
STARTCHAR acute
ENCODING 180
SWIDTH 461 0
DWIDTH 6 0
BBX 6 13 0 -2
BITMAP
00
10
20
00
00
00
00
00
00
00
00
00
00
ENDCHAR
STARTCHAR mu
ENCODING 181
SWIDTH 461 0
DWIDTH 6 0
BBX 6 13 0 -2
BITMAP
00
00
00
00
00
88
88
88
88
98
E8
80
00
ENDCHAR
STARTCHAR paragraph
ENCODING 182
SWIDTH 461 0
DWIDTH 6 0
BBX 6 13 0 -2
BITMAP
00
00
78
E8
E8
E8
E8
68
28
28
28
00
00
ENDCHAR
STARTCHAR periodcentered
ENCODING 183
SWIDTH 461 0
DWIDTH 6 0
BBX 6 13 0 -2
BITMAP
00
00
00
00
00
00
30
00
00
00
00
00
00
ENDCHAR
STARTCHAR cedilla
ENCODING 184
SWIDTH 461 0
DWIDTH 6 0
BBX 6 13 0 -2
BITMAP
00
00
00
00
00
00
00
00
00
00
00
10
20
ENDCHAR
STARTCHAR onesuperior
ENCODING 185
SWIDTH 461 0
DWIDTH 6 0
BBX 6 13 0 -2
BITMAP
00
40
C0
40
40
E0
00
00
00
00
00
00
00
ENDCHAR
STARTCHAR ordmasculine
ENCODING 186
SWIDTH 461 0
DWIDTH 6 0
BBX 6 13 0 -2
BITMAP
00
00
30
48
48
30
00
78
00
00
00
00
00
ENDCHAR
STARTCHAR guillemotright
ENCODING 187
SWIDTH 461 0
DWIDTH 6 0
BBX 6 13 0 -2
BITMAP
00
00
00
00
A0
50
28
28
50
A0
00
00
00
ENDCHAR
STARTCHAR onequarter
ENCODING 188
SWIDTH 461 0
DWIDTH 6 0
BBX 6 13 0 -2
BITMAP
00
40
C0
40
40
E0
08
18
28
38
08
00
00
ENDCHAR
STARTCHAR onehalf
ENCODING 189
SWIDTH 461 0
DWIDTH 6 0
BBX 6 13 0 -2
BITMAP
00
40
C0
40
40
E0
10
28
08
10
38
00
00
ENDCHAR
STARTCHAR threequarters
ENCODING 190
SWIDTH 461 0
DWIDTH 6 0
BBX 6 13 0 -2
BITMAP
00
40
A0
40
20
A0
48
18
28
38
08
00
00
ENDCHAR
STARTCHAR questiondown
ENCODING 191
SWIDTH 461 0
DWIDTH 6 0
BBX 6 13 0 -2
BITMAP
00
00
20
00
20
20
40
80
88
88
70
00
00
ENDCHAR
STARTCHAR Agrave
ENCODING 192
SWIDTH 461 0
DWIDTH 6 0
BBX 6 13 0 -2
BITMAP
00
20
10
00
20
50
88
88
f8
88
88
00
00
ENDCHAR
STARTCHAR Aacute
ENCODING 193
SWIDTH 461 0
DWIDTH 6 0
BBX 6 13 0 -2
BITMAP
00
10
20
00
20
50
88
88
f8
88
88
00
00
ENDCHAR
STARTCHAR Acircumflex
ENCODING 194
SWIDTH 461 0
DWIDTH 6 0
BBX 6 13 0 -2
BITMAP
00
30
48
00
20
50
88
88
f8
88
88
00
00
ENDCHAR
STARTCHAR Atilde
ENCODING 195
SWIDTH 461 0
DWIDTH 6 0
BBX 6 13 0 -2
BITMAP
00
28
50
00
20
50
88
88
f8
88
88
00
00
ENDCHAR
STARTCHAR Adieresis
ENCODING 196
SWIDTH 461 0
DWIDTH 6 0
BBX 6 13 0 -2
BITMAP
00
50
50
00
20
50
88
88
f8
88
88
00
00
ENDCHAR
STARTCHAR Aring
ENCODING 197
SWIDTH 461 0
DWIDTH 6 0
BBX 6 13 0 -2
BITMAP
00
20
50
20
20
50
88
88
f8
88
88
00
00
ENDCHAR
STARTCHAR AE
ENCODING 198
SWIDTH 461 0
DWIDTH 6 0
BBX 6 13 0 -2
BITMAP
00
00
58
a0
a0
a0
b0
e0
a0
a0
b8
00
00
ENDCHAR
STARTCHAR Ccedilla
ENCODING 199
SWIDTH 461 0
DWIDTH 6 0
BBX 6 13 0 -2
BITMAP
00
00
70
88
80
80
80
80
80
88
70
20
40
ENDCHAR
STARTCHAR Egrave
ENCODING 200
SWIDTH 461 0
DWIDTH 6 0
BBX 6 13 0 -2
BITMAP
00
20
10
00
f8
80
80
f0
80
80
f8
00
00
ENDCHAR
STARTCHAR Eacute
ENCODING 201
SWIDTH 461 0
DWIDTH 6 0
BBX 6 13 0 -2
BITMAP
00
10
20
00
f8
80
80
f0
80
80
f8
00
00
ENDCHAR
STARTCHAR Ecircumflex
ENCODING 202
SWIDTH 461 0
DWIDTH 6 0
BBX 6 13 0 -2
BITMAP
00
60
90
00
f8
80
80
f0
80
80
f8
00
00
ENDCHAR
STARTCHAR Edieresis
ENCODING 203
SWIDTH 461 0
DWIDTH 6 0
BBX 6 13 0 -2
BITMAP
00
50
50
00
f8
80
80
f0
80
80
f8
00
00
ENDCHAR
STARTCHAR Igrave
ENCODING 204
SWIDTH 461 0
DWIDTH 6 0
BBX 6 13 0 -2
BITMAP
00
20
10
00
f8
20
20
20
20
20
f8
00
00
ENDCHAR
STARTCHAR Iacute
ENCODING 205
SWIDTH 461 0
DWIDTH 6 0
BBX 6 13 0 -2
BITMAP
00
10
20
00
f8
20
20
20
20
20
f8
00
00
ENDCHAR
STARTCHAR Icircumflex
ENCODING 206
SWIDTH 461 0
DWIDTH 6 0
BBX 6 13 0 -2
BITMAP
00
30
48
00
f8
20
20
20
20
20
f8
00
00
ENDCHAR
STARTCHAR Idieresis
ENCODING 207
SWIDTH 461 0
DWIDTH 6 0
BBX 6 13 0 -2
BITMAP
00
50
50
00
f8
20
20
20
20
20
f8
00
00
ENDCHAR
STARTCHAR Eth
ENCODING 208
SWIDTH 461 0
DWIDTH 6 0
BBX 6 13 0 -2
BITMAP
00
00
f0
48
48
48
e8
48
48
48
f0
00
00
ENDCHAR
STARTCHAR Ntilde
ENCODING 209
SWIDTH 461 0
DWIDTH 6 0
BBX 6 13 0 -2
BITMAP
00
28
50
00
88
88
c8
a8
98
88
88
00
00
ENDCHAR
STARTCHAR Ograve
ENCODING 210
SWIDTH 461 0
DWIDTH 6 0
BBX 6 13 0 -2
BITMAP
00
20
10
00
70
88
88
88
88
88
70
00
00
ENDCHAR
STARTCHAR Oacute
ENCODING 211
SWIDTH 461 0
DWIDTH 6 0
BBX 6 13 0 -2
BITMAP
00
10
20
00
70
88
88
88
88
88
70
00
00
ENDCHAR
STARTCHAR Ocircumflex
ENCODING 212
SWIDTH 461 0
DWIDTH 6 0
BBX 6 13 0 -2
BITMAP
00
30
48
00
70
88
88
88
88
88
70
00
00
ENDCHAR
STARTCHAR Otilde
ENCODING 213
SWIDTH 461 0
DWIDTH 6 0
BBX 6 13 0 -2
BITMAP
00
28
50
00
70
88
88
88
88
88
70
00
00
ENDCHAR
STARTCHAR Odieresis
ENCODING 214
SWIDTH 461 0
DWIDTH 6 0
BBX 6 13 0 -2
BITMAP
00
50
50
00
70
88
88
88
88
88
70
00
00
ENDCHAR
STARTCHAR multiply
ENCODING 215
SWIDTH 461 0
DWIDTH 6 0
BBX 6 13 0 -2
BITMAP
00
00
00
00
00
88
50
20
50
88
00
00
00
ENDCHAR
STARTCHAR Oslash
ENCODING 216
SWIDTH 461 0
DWIDTH 6 0
BBX 6 13 0 -2
BITMAP
00
08
70
98
98
a8
a8
a8
c8
c8
70
80
00
ENDCHAR
STARTCHAR Ugrave
ENCODING 217
SWIDTH 461 0
DWIDTH 6 0
BBX 6 13 0 -2
BITMAP
00
20
10
00
88
88
88
88
88
88
70
00
00
ENDCHAR
STARTCHAR Uacute
ENCODING 218
SWIDTH 461 0
DWIDTH 6 0
BBX 6 13 0 -2
BITMAP
00
10
20
00
88
88
88
88
88
88
70
00
00
ENDCHAR
STARTCHAR Ucircumflex
ENCODING 219
SWIDTH 461 0
DWIDTH 6 0
BBX 6 13 0 -2
BITMAP
00
30
48
00
88
88
88
88
88
88
70
00
00
ENDCHAR
STARTCHAR Udieresis
ENCODING 220
SWIDTH 461 0
DWIDTH 6 0
BBX 6 13 0 -2
BITMAP
00
50
50
00
88
88
88
88
88
88
70
00
00
ENDCHAR
STARTCHAR Yacute
ENCODING 221
SWIDTH 461 0
DWIDTH 6 0
BBX 6 13 0 -2
BITMAP
00
10
20
00
88
88
50
20
20
20
20
00
00
ENDCHAR
STARTCHAR Thorn
ENCODING 222
SWIDTH 461 0
DWIDTH 6 0
BBX 6 13 0 -2
BITMAP
00
00
80
f0
88
88
88
f0
80
80
80
00
00
ENDCHAR
STARTCHAR germandbls
ENCODING 223
SWIDTH 461 0
DWIDTH 6 0
BBX 6 13 0 -2
BITMAP
00
00
00
70
88
88
f0
88
88
c8
b0
80
00
ENDCHAR
STARTCHAR agrave
ENCODING 224
SWIDTH 461 0
DWIDTH 6 0
BBX 6 13 0 -2
BITMAP
00
20
10
00
00
70
08
78
88
98
68
00
00
ENDCHAR
STARTCHAR aacute
ENCODING 225
SWIDTH 461 0
DWIDTH 6 0
BBX 6 13 0 -2
BITMAP
00
10
20
00
00
70
08
78
88
98
68
00
00
ENDCHAR
STARTCHAR acircumflex
ENCODING 226
SWIDTH 461 0
DWIDTH 6 0
BBX 6 13 0 -2
BITMAP
00
30
48
00
00
70
08
78
88
98
68
00
00
ENDCHAR
STARTCHAR atilde
ENCODING 227
SWIDTH 461 0
DWIDTH 6 0
BBX 6 13 0 -2
BITMAP
00
28
50
00
00
70
08
78
88
98
68
00
00
ENDCHAR
STARTCHAR adieresis
ENCODING 228
SWIDTH 461 0
DWIDTH 6 0
BBX 6 13 0 -2
BITMAP
00
50
50
00
00
70
08
78
88
98
68
00
00
ENDCHAR
STARTCHAR aring
ENCODING 229
SWIDTH 461 0
DWIDTH 6 0
BBX 6 13 0 -2
BITMAP
00
30
48
30
00
70
08
78
88
98
68
00
00
ENDCHAR
STARTCHAR ae
ENCODING 230
SWIDTH 461 0
DWIDTH 6 0
BBX 6 13 0 -2
BITMAP
00
00
00
00
00
70
28
70
a0
a8
50
00
00
ENDCHAR
STARTCHAR ccedilla
ENCODING 231
SWIDTH 461 0
DWIDTH 6 0
BBX 6 13 0 -2
BITMAP
00
00
00
00
00
70
88
80
80
88
70
20
40
ENDCHAR
STARTCHAR egrave
ENCODING 232
SWIDTH 461 0
DWIDTH 6 0
BBX 6 13 0 -2
BITMAP
00
20
10
00
00
70
88
f8
80
88
70
00
00
ENDCHAR
STARTCHAR eacute
ENCODING 233
SWIDTH 461 0
DWIDTH 6 0
BBX 6 13 0 -2
BITMAP
00
10
20
00
00
70
88
f8
80
88
70
00
00
ENDCHAR
STARTCHAR ecircumflex
ENCODING 234
SWIDTH 461 0
DWIDTH 6 0
BBX 6 13 0 -2
BITMAP
00
30
48
00
00
70
88
f8
80
88
70
00
00
ENDCHAR
STARTCHAR edieresis
ENCODING 235
SWIDTH 461 0
DWIDTH 6 0
BBX 6 13 0 -2
BITMAP
00
50
50
00
00
70
88
f8
80
88
70
00
00
ENDCHAR
STARTCHAR igrave
ENCODING 236
SWIDTH 461 0
DWIDTH 6 0
BBX 6 13 0 -2
BITMAP
00
20
10
00
00
60
20
20
20
20
f8
00
00
ENDCHAR
STARTCHAR iacute
ENCODING 237
SWIDTH 461 0
DWIDTH 6 0
BBX 6 13 0 -2
BITMAP
00
10
20
00
00
60
20
20
20
20
f8
00
00
ENDCHAR
STARTCHAR icircumflex
ENCODING 238
SWIDTH 461 0
DWIDTH 6 0
BBX 6 13 0 -2
BITMAP
00
30
48
00
00
60
20
20
20
20
f8
00
00
ENDCHAR
STARTCHAR idieresis
ENCODING 239
SWIDTH 461 0
DWIDTH 6 0
BBX 6 13 0 -2
BITMAP
00
50
50
00
00
60
20
20
20
20
f8
00
00
ENDCHAR
STARTCHAR eth
ENCODING 240
SWIDTH 461 0
DWIDTH 6 0
BBX 6 13 0 -2
BITMAP
00
50
20
60
10
70
88
88
88
88
70
00
00
ENDCHAR
STARTCHAR ntilde
ENCODING 241
SWIDTH 461 0
DWIDTH 6 0
BBX 6 13 0 -2
BITMAP
00
28
50
00
00
b0
c8
88
88
88
88
00
00
ENDCHAR
STARTCHAR ograve
ENCODING 242
SWIDTH 461 0
DWIDTH 6 0
BBX 6 13 0 -2
BITMAP
00
20
10
00
00
70
88
88
88
88
70
00
00
ENDCHAR
STARTCHAR oacute
ENCODING 243
SWIDTH 461 0
DWIDTH 6 0
BBX 6 13 0 -2
BITMAP
00
10
20
00
00
70
88
88
88
88
70
00
00
ENDCHAR
STARTCHAR ocircumflex
ENCODING 244
SWIDTH 461 0
DWIDTH 6 0
BBX 6 13 0 -2
BITMAP
00
30
48
00
00
70
88
88
88
88
70
00
00
ENDCHAR
STARTCHAR otilde
ENCODING 245
SWIDTH 461 0
DWIDTH 6 0
BBX 6 13 0 -2
BITMAP
00
28
50
00
00
70
88
88
88
88
70
00
00
ENDCHAR
STARTCHAR odieresis
ENCODING 246
SWIDTH 461 0
DWIDTH 6 0
BBX 6 13 0 -2
BITMAP
00
50
50
00
00
70
88
88
88
88
70
00
00
ENDCHAR
STARTCHAR divide
ENCODING 247
SWIDTH 461 0
DWIDTH 6 0
BBX 6 13 0 -2
BITMAP
00
00
00
20
20
00
f8
00
20
20
00
00
00
ENDCHAR
STARTCHAR oslash
ENCODING 248
SWIDTH 461 0
DWIDTH 6 0
BBX 6 13 0 -2
BITMAP
00
00
00
00
08
70
98
a8
a8
c8
70
80
00
ENDCHAR
STARTCHAR ugrave
ENCODING 249
SWIDTH 461 0
DWIDTH 6 0
BBX 6 13 0 -2
BITMAP
00
20
10
00
00
88
88
88
88
88
78
00
00
ENDCHAR
STARTCHAR uacute
ENCODING 250
SWIDTH 461 0
DWIDTH 6 0
BBX 6 13 0 -2
BITMAP
00
10
20
00
00
88
88
88
88
88
78
00
00
ENDCHAR
STARTCHAR ucircumflex
ENCODING 251
SWIDTH 461 0
DWIDTH 6 0
BBX 6 13 0 -2
BITMAP
00
30
48
00
00
88
88
88
88
88
78
00
00
ENDCHAR
STARTCHAR udieresis
ENCODING 252
SWIDTH 461 0
DWIDTH 6 0
BBX 6 13 0 -2
BITMAP
00
50
50
00
00
88
88
88
88
88
78
00
00
ENDCHAR
STARTCHAR yacute
ENCODING 253
SWIDTH 461 0
DWIDTH 6 0
BBX 6 13 0 -2
BITMAP
00
10
20
00
00
88
88
88
98
68
08
88
70
ENDCHAR
STARTCHAR thorn
ENCODING 254
SWIDTH 461 0
DWIDTH 6 0
BBX 6 13 0 -2
BITMAP
00
00
00
80
80
b0
c8
88
88
c8
b0
80
80
ENDCHAR
STARTCHAR ydieresis
ENCODING 255
SWIDTH 461 0
DWIDTH 6 0
BBX 6 13 0 -2
BITMAP
00
50
50
00
00
88
88
88
98
68
08
88
70
ENDCHAR
STARTCHAR uni0400
ENCODING 1024
SWIDTH 461 0
DWIDTH 6 0
BBX 6 13 0 -2
BITMAP
00
20
10
00
f8
80
80
f0
80
80
f8
00
00
ENDCHAR
STARTCHAR afii10023
ENCODING 1025
SWIDTH 461 0
DWIDTH 6 0
BBX 6 13 0 -2
BITMAP
00
50
50
00
f8
80
80
f0
80
80
f8
00
00
ENDCHAR
STARTCHAR afii10051
ENCODING 1026
SWIDTH 461 0
DWIDTH 6 0
BBX 6 13 0 -2
BITMAP
00
00
F0
80
80
80
F0
88
88
88
B0
00
00
ENDCHAR
STARTCHAR afii10052
ENCODING 1027
SWIDTH 461 0
DWIDTH 6 0
BBX 6 13 0 -2
BITMAP
00
10
20
00
F8
80
80
80
80
80
80
00
00
ENDCHAR
STARTCHAR afii10053
ENCODING 1028
SWIDTH 461 0
DWIDTH 6 0
BBX 6 13 0 -2
BITMAP
00
00
70
88
80
80
E0
80
80
88
70
00
00
ENDCHAR
STARTCHAR afii10054
ENCODING 1029
SWIDTH 461 0
DWIDTH 6 0
BBX 6 13 0 -2
BITMAP
00
00
70
88
80
80
70
08
08
88
70
00
00
ENDCHAR
STARTCHAR afii10055
ENCODING 1030
SWIDTH 461 0
DWIDTH 6 0
BBX 6 13 0 -2
BITMAP
00
00
70
20
20
20
20
20
20
20
70
00
00
ENDCHAR
STARTCHAR afii10056
ENCODING 1031
SWIDTH 461 0
DWIDTH 6 0
BBX 6 13 0 -2
BITMAP
00
50
50
00
f8
20
20
20
20
20
f8
00
00
ENDCHAR
STARTCHAR afii10057
ENCODING 1032
SWIDTH 461 0
DWIDTH 6 0
BBX 6 13 0 -2
BITMAP
00
00
38
10
10
10
10
10
10
90
60
00
00
ENDCHAR
STARTCHAR afii10058
ENCODING 1033
SWIDTH 461 0
DWIDTH 6 0
BBX 6 13 0 -2
BITMAP
00
00
60
A0
A0
A0
B0
A8
A8
A8
B0
00
00
ENDCHAR
STARTCHAR afii10059
ENCODING 1034
SWIDTH 461 0
DWIDTH 6 0
BBX 6 13 0 -2
BITMAP
00
00
A0
A0
A0
A0
F0
A8
A8
A8
B0
00
00
ENDCHAR
STARTCHAR afii10060
ENCODING 1035
SWIDTH 461 0
DWIDTH 6 0
BBX 6 13 0 -2
BITMAP
00
00
F0
80
80
80
F0
88
88
88
88
00
00
ENDCHAR
STARTCHAR afii10061
ENCODING 1036
SWIDTH 461 0
DWIDTH 6 0
BBX 6 13 0 -2
BITMAP
00
10
20
00
88
90
A0
C0
A0
90
88
00
00
ENDCHAR
STARTCHAR uni040D
ENCODING 1037
SWIDTH 461 0
DWIDTH 6 0
BBX 6 13 0 -2
BITMAP
00
40
20
00
88
98
98
A8
C8
C8
88
00
00
ENDCHAR
STARTCHAR afii10062
ENCODING 1038
SWIDTH 461 0
DWIDTH 6 0
BBX 6 13 0 -2
BITMAP
00
88
70
00
88
88
88
78
08
88
70
00
00
ENDCHAR
STARTCHAR afii10145
ENCODING 1039
SWIDTH 461 0
DWIDTH 6 0
BBX 6 13 0 -2
BITMAP
00
00
88
88
88
88
88
88
88
88
F8
20
20
ENDCHAR
STARTCHAR afii10017
ENCODING 1040
SWIDTH 461 0
DWIDTH 6 0
BBX 6 13 0 -2
BITMAP
00
00
20
50
88
88
88
F8
88
88
88
00
00
ENDCHAR
STARTCHAR afii10018
ENCODING 1041
SWIDTH 461 0
DWIDTH 6 0
BBX 6 13 0 -2
BITMAP
00
00
F8
80
80
80
F0
88
88
88
F0
00
00
ENDCHAR
STARTCHAR afii10019
ENCODING 1042
SWIDTH 461 0
DWIDTH 6 0
BBX 6 13 0 -2
BITMAP
00
00
F0
48
48
48
70
48
48
48
F0
00
00
ENDCHAR
STARTCHAR afii10020
ENCODING 1043
SWIDTH 461 0
DWIDTH 6 0
BBX 6 13 0 -2
BITMAP
00
00
F8
80
80
80
80
80
80
80
80
00
00
ENDCHAR
STARTCHAR afii10021
ENCODING 1044
SWIDTH 461 0
DWIDTH 6 0
BBX 6 13 0 -2
BITMAP
00
00
30
50
50
50
50
50
50
50
F8
88
00
ENDCHAR
STARTCHAR afii10022
ENCODING 1045
SWIDTH 461 0
DWIDTH 6 0
BBX 6 13 0 -2
BITMAP
00
00
F8
80
80
80
F0
80
80
80
F8
00
00
ENDCHAR
STARTCHAR afii10024
ENCODING 1046
SWIDTH 461 0
DWIDTH 6 0
BBX 6 13 0 -2
BITMAP
00
00
A8
A8
A8
70
20
70
A8
A8
A8
00
00
ENDCHAR
STARTCHAR afii10025
ENCODING 1047
SWIDTH 461 0
DWIDTH 6 0
BBX 6 13 0 -2
BITMAP
00
00
70
88
08
08
30
08
08
88
70
00
00
ENDCHAR
STARTCHAR afii10026
ENCODING 1048
SWIDTH 461 0
DWIDTH 6 0
BBX 6 13 0 -2
BITMAP
00
00
88
88
98
98
A8
A8
C8
C8
88
00
00
ENDCHAR
STARTCHAR afii10027
ENCODING 1049
SWIDTH 461 0
DWIDTH 6 0
BBX 6 13 0 -2
BITMAP
00
88
70
00
88
98
98
A8
C8
C8
88
00
00
ENDCHAR
STARTCHAR afii10028
ENCODING 1050
SWIDTH 461 0
DWIDTH 6 0
BBX 6 13 0 -2
BITMAP
00
00
88
88
90
A0
C0
A0
90
88
88
00
00
ENDCHAR
STARTCHAR afii10029
ENCODING 1051
SWIDTH 461 0
DWIDTH 6 0
BBX 6 13 0 -2
BITMAP
00
00
38
48
48
48
48
48
48
48
88
00
00
ENDCHAR
STARTCHAR afii10030
ENCODING 1052
SWIDTH 461 0
DWIDTH 6 0
BBX 6 13 0 -2
BITMAP
00
00
88
88
D8
A8
A8
88
88
88
88
00
00
ENDCHAR
STARTCHAR afii10031
ENCODING 1053
SWIDTH 461 0
DWIDTH 6 0
BBX 6 13 0 -2
BITMAP
00
00
88
88
88
88
F8
88
88
88
88
00
00
ENDCHAR
STARTCHAR afii10032
ENCODING 1054
SWIDTH 461 0
DWIDTH 6 0
BBX 6 13 0 -2
BITMAP
00
00
70
88
88
88
88
88
88
88
70
00
00
ENDCHAR
STARTCHAR afii10033
ENCODING 1055
SWIDTH 461 0
DWIDTH 6 0
BBX 6 13 0 -2
BITMAP
00
00
F8
88
88
88
88
88
88
88
88
00
00
ENDCHAR
STARTCHAR afii10034
ENCODING 1056
SWIDTH 461 0
DWIDTH 6 0
BBX 6 13 0 -2
BITMAP
00
00
F0
88
88
88
F0
80
80
80
80
00
00
ENDCHAR
STARTCHAR afii10035
ENCODING 1057
SWIDTH 461 0
DWIDTH 6 0
BBX 6 13 0 -2
BITMAP
00
00
70
88
80
80
80
80
80
88
70
00
00
ENDCHAR
STARTCHAR afii10036
ENCODING 1058
SWIDTH 461 0
DWIDTH 6 0
BBX 6 13 0 -2
BITMAP
00
00
F8
20
20
20
20
20
20
20
20
00
00
ENDCHAR
STARTCHAR afii10037
ENCODING 1059
SWIDTH 461 0
DWIDTH 6 0
BBX 6 13 0 -2
BITMAP
00
00
88
88
88
88
78
08
08
88
70
00
00
ENDCHAR
STARTCHAR afii10038
ENCODING 1060
SWIDTH 461 0
DWIDTH 6 0
BBX 6 13 0 -2
BITMAP
00
00
20
70
A8
A8
A8
A8
A8
70
20
00
00
ENDCHAR
STARTCHAR afii10039
ENCODING 1061
SWIDTH 461 0
DWIDTH 6 0
BBX 6 13 0 -2
BITMAP
00
00
88
88
50
50
20
50
50
88
88
00
00
ENDCHAR
STARTCHAR afii10040
ENCODING 1062
SWIDTH 461 0
DWIDTH 6 0
BBX 6 13 0 -2
BITMAP
00
00
90
90
90
90
90
90
90
90
F8
08
00
ENDCHAR
STARTCHAR afii10041
ENCODING 1063
SWIDTH 461 0
DWIDTH 6 0
BBX 6 13 0 -2
BITMAP
00
00
88
88
88
88
78
08
08
08
08
00
00
ENDCHAR
STARTCHAR afii10042
ENCODING 1064
SWIDTH 461 0
DWIDTH 6 0
BBX 6 13 0 -2
BITMAP
00
00
88
88
A8
A8
A8
A8
A8
A8
F8
00
00
ENDCHAR
STARTCHAR afii10043
ENCODING 1065
SWIDTH 461 0
DWIDTH 6 0
BBX 6 13 0 -2
BITMAP
00
00
88
88
A8
A8
A8
A8
A8
A8
FC
04
00
ENDCHAR
STARTCHAR afii10044
ENCODING 1066
SWIDTH 461 0
DWIDTH 6 0
BBX 6 13 0 -2
BITMAP
00
00
C0
40
40
40
70
48
48
48
70
00
00
ENDCHAR
STARTCHAR afii10045
ENCODING 1067
SWIDTH 461 0
DWIDTH 6 0
BBX 6 13 0 -2
BITMAP
00
00
88
88
88
88
C8
A8
A8
A8
C8
00
00
ENDCHAR
STARTCHAR afii10046
ENCODING 1068
SWIDTH 461 0
DWIDTH 6 0
BBX 6 13 0 -2
BITMAP
00
00
80
80
80
80
F0
88
88
88
F0
00
00
ENDCHAR
STARTCHAR afii10047
ENCODING 1069
SWIDTH 461 0
DWIDTH 6 0
BBX 6 13 0 -2
BITMAP
00
00
70
88
08
08
38
08
08
88
70
00
00
ENDCHAR
STARTCHAR afii10048
ENCODING 1070
SWIDTH 461 0
DWIDTH 6 0
BBX 6 13 0 -2
BITMAP
00
00
90
A8
A8
A8
E8
A8
A8
A8
90
00
00
ENDCHAR
STARTCHAR afii10049
ENCODING 1071
SWIDTH 461 0
DWIDTH 6 0
BBX 6 13 0 -2
BITMAP
00
00
78
88
88
88
78
28
48
88
88
00
00
ENDCHAR
STARTCHAR afii10065
ENCODING 1072
SWIDTH 461 0
DWIDTH 6 0
BBX 6 13 0 -2
BITMAP
00
00
00
00
00
70
08
78
88
88
78
00
00
ENDCHAR
STARTCHAR afii10066
ENCODING 1073
SWIDTH 461 0
DWIDTH 6 0
BBX 6 13 0 -2
BITMAP
00
00
08
70
80
B0
C8
88
88
88
70
00
00
ENDCHAR
STARTCHAR afii10067
ENCODING 1074
SWIDTH 461 0
DWIDTH 6 0
BBX 6 13 0 -2
BITMAP
00
00
00
00
00
F0
88
F0
88
88
F0
00
00
ENDCHAR
STARTCHAR afii10068
ENCODING 1075
SWIDTH 461 0
DWIDTH 6 0
BBX 6 13 0 -2
BITMAP
00
00
00
00
00
F8
80
80
80
80
80
00
00
ENDCHAR
STARTCHAR afii10069
ENCODING 1076
SWIDTH 461 0
DWIDTH 6 0
BBX 6 13 0 -2
BITMAP
00
00
00
00
00
30
50
50
50
50
F8
88
00
ENDCHAR
STARTCHAR afii10070
ENCODING 1077
SWIDTH 461 0
DWIDTH 6 0
BBX 6 13 0 -2
BITMAP
00
00
00
00
00
70
88
F8
80
88
70
00
00
ENDCHAR
STARTCHAR afii10072
ENCODING 1078
SWIDTH 461 0
DWIDTH 6 0
BBX 6 13 0 -2
BITMAP
00
00
00
00
00
A8
70
20
70
A8
A8
00
00
ENDCHAR
STARTCHAR afii10073
ENCODING 1079
SWIDTH 461 0
DWIDTH 6 0
BBX 6 13 0 -2
BITMAP
00
00
00
00
00
F0
08
70
08
08
F0
00
00
ENDCHAR
STARTCHAR afii10074
ENCODING 1080
SWIDTH 461 0
DWIDTH 6 0
BBX 6 13 0 -2
BITMAP
00
00
00
00
00
88
88
98
A8
C8
88
00
00
ENDCHAR
STARTCHAR afii10075
ENCODING 1081
SWIDTH 461 0
DWIDTH 6 0
BBX 6 13 0 -2
BITMAP
00
00
88
70
00
88
88
98
A8
C8
88
00
00
ENDCHAR
STARTCHAR afii10076
ENCODING 1082
SWIDTH 461 0
DWIDTH 6 0
BBX 6 13 0 -2
BITMAP
00
00
00
00
00
90
A0
C0
A0
90
88
00
00
ENDCHAR
STARTCHAR afii10077
ENCODING 1083
SWIDTH 461 0
DWIDTH 6 0
BBX 6 13 0 -2
BITMAP
00
00
00
00
00
38
48
48
48
48
88
00
00
ENDCHAR
STARTCHAR afii10078
ENCODING 1084
SWIDTH 461 0
DWIDTH 6 0
BBX 6 13 0 -2
BITMAP
00
00
00
00
00
88
D8
A8
A8
88
88
00
00
ENDCHAR
STARTCHAR afii10079
ENCODING 1085
SWIDTH 461 0
DWIDTH 6 0
BBX 6 13 0 -2
BITMAP
00
00
00
00
00
88
88
F8
88
88
88
00
00
ENDCHAR
STARTCHAR afii10080
ENCODING 1086
SWIDTH 461 0
DWIDTH 6 0
BBX 6 13 0 -2
BITMAP
00
00
00
00
00
70
88
88
88
88
70
00
00
ENDCHAR
STARTCHAR afii10081
ENCODING 1087
SWIDTH 461 0
DWIDTH 6 0
BBX 6 13 0 -2
BITMAP
00
00
00
00
00
F8
88
88
88
88
88
00
00
ENDCHAR
STARTCHAR afii10082
ENCODING 1088
SWIDTH 461 0
DWIDTH 6 0
BBX 6 13 0 -2
BITMAP
00
00
00
00
00
F0
88
88
88
F0
80
80
80
ENDCHAR
STARTCHAR afii10083
ENCODING 1089
SWIDTH 461 0
DWIDTH 6 0
BBX 6 13 0 -2
BITMAP
00
00
00
00
00
70
88
80
80
88
70
00
00
ENDCHAR
STARTCHAR afii10084
ENCODING 1090
SWIDTH 461 0
DWIDTH 6 0
BBX 6 13 0 -2
BITMAP
00
00
00
00
00
F8
20
20
20
20
20
00
00
ENDCHAR
STARTCHAR afii10085
ENCODING 1091
SWIDTH 461 0
DWIDTH 6 0
BBX 6 13 0 -2
BITMAP
00
00
00
00
00
88
88
88
98
68
08
88
70
ENDCHAR
STARTCHAR afii10086
ENCODING 1092
SWIDTH 461 0
DWIDTH 6 0
BBX 6 13 0 -2
BITMAP
00
00
00
00
20
70
A8
A8
A8
70
20
20
20
ENDCHAR
STARTCHAR afii10087
ENCODING 1093
SWIDTH 461 0
DWIDTH 6 0
BBX 6 13 0 -2
BITMAP
00
00
00
00
00
88
50
20
20
50
88
00
00
ENDCHAR
STARTCHAR afii10088
ENCODING 1094
SWIDTH 461 0
DWIDTH 6 0
BBX 6 13 0 -2
BITMAP
00
00
00
00
00
90
90
90
90
90
F8
08
00
ENDCHAR
STARTCHAR afii10089
ENCODING 1095
SWIDTH 461 0
DWIDTH 6 0
BBX 6 13 0 -2
BITMAP
00
00
00
00
00
88
88
88
78
08
08
00
00
ENDCHAR
STARTCHAR afii10090
ENCODING 1096
SWIDTH 461 0
DWIDTH 6 0
BBX 6 13 0 -2
BITMAP
00
00
00
00
00
88
A8
A8
A8
A8
F8
00
00
ENDCHAR
STARTCHAR afii10091
ENCODING 1097
SWIDTH 461 0
DWIDTH 6 0
BBX 6 13 0 -2
BITMAP
00
00
00
00
00
88
A8
A8
A8
A8
FC
04
00
ENDCHAR
STARTCHAR afii10092
ENCODING 1098
SWIDTH 461 0
DWIDTH 6 0
BBX 6 13 0 -2
BITMAP
00
00
00
00
00
C0
40
70
48
48
70
00
00
ENDCHAR
STARTCHAR afii10093
ENCODING 1099
SWIDTH 461 0
DWIDTH 6 0
BBX 6 13 0 -2
BITMAP
00
00
00
00
00
88
88
C8
A8
A8
C8
00
00
ENDCHAR
STARTCHAR afii10094
ENCODING 1100
SWIDTH 461 0
DWIDTH 6 0
BBX 6 13 0 -2
BITMAP
00
00
00
00
00
80
80
F0
88
88
F0
00
00
ENDCHAR
STARTCHAR afii10095
ENCODING 1101
SWIDTH 461 0
DWIDTH 6 0
BBX 6 13 0 -2
BITMAP
00
00
00
00
00
70
88
38
08
88
70
00
00
ENDCHAR
STARTCHAR afii10096
ENCODING 1102
SWIDTH 461 0
DWIDTH 6 0
BBX 6 13 0 -2
BITMAP
00
00
00
00
00
90
A8
E8
A8
A8
90
00
00
ENDCHAR
STARTCHAR afii10097
ENCODING 1103
SWIDTH 461 0
DWIDTH 6 0
BBX 6 13 0 -2
BITMAP
00
00
00
00
00
78
88
88
78
48
88
00
00
ENDCHAR
STARTCHAR uni0450
ENCODING 1104
SWIDTH 461 0
DWIDTH 6 0
BBX 6 13 0 -2
BITMAP
00
20
10
00
00
70
88
f8
80
88
70
00
00
ENDCHAR
STARTCHAR afii10071
ENCODING 1105
SWIDTH 461 0
DWIDTH 6 0
BBX 6 13 0 -2
BITMAP
00
50
50
00
00
70
88
f8
80
88
70
00
00
ENDCHAR
STARTCHAR afii10099
ENCODING 1106
SWIDTH 461 0
DWIDTH 6 0
BBX 6 13 0 -2
BITMAP
00
00
80
E0
80
B0
C8
88
88
88
88
08
30
ENDCHAR
STARTCHAR afii10100
ENCODING 1107
SWIDTH 461 0
DWIDTH 6 0
BBX 6 13 0 -2
BITMAP
00
10
20
00
00
F8
80
80
80
80
80
00
00
ENDCHAR
STARTCHAR afii10101
ENCODING 1108
SWIDTH 461 0
DWIDTH 6 0
BBX 6 13 0 -2
BITMAP
00
00
00
00
00
70
88
E0
80
88
70
00
00
ENDCHAR
STARTCHAR afii10102
ENCODING 1109
SWIDTH 461 0
DWIDTH 6 0
BBX 6 13 0 -2
BITMAP
00
00
00
00
00
70
88
60
10
88
70
00
00
ENDCHAR
STARTCHAR afii10103
ENCODING 1110
SWIDTH 461 0
DWIDTH 6 0
BBX 6 13 0 -2
BITMAP
00
00
00
20
00
60
20
20
20
20
70
00
00
ENDCHAR
STARTCHAR afii10104
ENCODING 1111
SWIDTH 461 0
DWIDTH 6 0
BBX 6 13 0 -2
BITMAP
00
50
50
00
00
60
20
20
20
20
f8
00
00
ENDCHAR
STARTCHAR afii10105
ENCODING 1112
SWIDTH 461 0
DWIDTH 6 0
BBX 6 13 0 -2
BITMAP
00
00
00
10
00
30
10
10
10
10
90
90
60
ENDCHAR
STARTCHAR afii10106
ENCODING 1113
SWIDTH 461 0
DWIDTH 6 0
BBX 6 13 0 -2
BITMAP
00
00
00
00
00
60
A0
B0
A8
A8
B0
00
00
ENDCHAR
STARTCHAR afii10107
ENCODING 1114
SWIDTH 461 0
DWIDTH 6 0
BBX 6 13 0 -2
BITMAP
00
00
00
00
00
A0
A0
F0
A8
A8
B0
00
00
ENDCHAR
STARTCHAR afii10108
ENCODING 1115
SWIDTH 461 0
DWIDTH 6 0
BBX 6 13 0 -2
BITMAP
00
00
80
E0
80
B0
C8
88
88
88
88
00
00
ENDCHAR
STARTCHAR afii10109
ENCODING 1116
SWIDTH 461 0
DWIDTH 6 0
BBX 6 13 0 -2
BITMAP
00
10
20
00
00
90
A0
C0
A0
90
88
00
00
ENDCHAR
STARTCHAR uni045D
ENCODING 1117
SWIDTH 461 0
DWIDTH 6 0
BBX 6 13 0 -2
BITMAP
00
00
40
20
00
88
88
98
A8
C8
88
00
00
ENDCHAR
STARTCHAR afii10110
ENCODING 1118
SWIDTH 461 0
DWIDTH 6 0
BBX 6 13 0 -2
BITMAP
00
00
88
70
00
88
88
88
98
68
08
88
70
ENDCHAR
STARTCHAR afii10193
ENCODING 1119
SWIDTH 461 0
DWIDTH 6 0
BBX 6 13 0 -2
BITMAP
00
00
00
00
00
88
88
88
88
88
F8
20
20
ENDCHAR
STARTCHAR uni0460
ENCODING 1120
SWIDTH 461 0
DWIDTH 6 0
BBX 6 13 0 -2
BITMAP
00
00
50
88
88
88
A8
A8
A8
A8
50
00
00
ENDCHAR
STARTCHAR uni0461
ENCODING 1121
SWIDTH 461 0
DWIDTH 6 0
BBX 6 13 0 -2
BITMAP
00
00
00
00
00
50
88
A8
A8
A8
50
00
00
ENDCHAR
STARTCHAR afii10146
ENCODING 1122
SWIDTH 461 0
DWIDTH 6 0
BBX 6 13 0 -2
BITMAP
00
00
40
E0
40
40
70
48
48
48
70
00
00
ENDCHAR
STARTCHAR afii10194
ENCODING 1123
SWIDTH 461 0
DWIDTH 6 0
BBX 6 13 0 -2
BITMAP
00
00
40
40
40
E0
40
70
48
48
70
00
00
ENDCHAR
STARTCHAR uni0464
ENCODING 1124
SWIDTH 461 0
DWIDTH 6 0
BBX 6 13 0 -2
BITMAP
00
00
90
A8
A0
A0
F8
A0
A0
A8
90
00
00
ENDCHAR
STARTCHAR uni0465
ENCODING 1125
SWIDTH 461 0
DWIDTH 6 0
BBX 6 13 0 -2
BITMAP
00
00
00
00
00
90
A8
F0
A0
A8
90
00
00
ENDCHAR
STARTCHAR uni0466
ENCODING 1126
SWIDTH 461 0
DWIDTH 6 0
BBX 6 13 0 -2
BITMAP
00
00
20
20
50
50
50
A8
A8
A8
A8
00
00
ENDCHAR
STARTCHAR uni0467
ENCODING 1127
SWIDTH 461 0
DWIDTH 6 0
BBX 6 13 0 -2
BITMAP
00
00
00
00
00
20
50
50
A8
A8
A8
00
00
ENDCHAR
STARTCHAR uni0468
ENCODING 1128
SWIDTH 461 0
DWIDTH 6 0
BBX 6 13 0 -2
BITMAP
00
00
90
90
A8
A8
E8
D4
D4
D4
D4
00
00
ENDCHAR
STARTCHAR uni0469
ENCODING 1129
SWIDTH 461 0
DWIDTH 6 0
BBX 6 13 0 -2
BITMAP
00
00
00
00
00
90
A8
E8
D4
D4
D4
00
00
ENDCHAR
STARTCHAR uni046A
ENCODING 1130
SWIDTH 461 0
DWIDTH 6 0
BBX 6 13 0 -2
BITMAP
00
00
F8
88
50
50
20
70
A8
A8
A8
00
00
ENDCHAR
STARTCHAR uni046B
ENCODING 1131
SWIDTH 461 0
DWIDTH 6 0
BBX 6 13 0 -2
BITMAP
00
00
00
00
00
F8
50
20
70
A8
A8
00
00
ENDCHAR
STARTCHAR uni046C
ENCODING 1132
SWIDTH 461 0
DWIDTH 6 0
BBX 6 13 0 -2
BITMAP
00
00
FC
C4
A8
A8
F0
B8
D4
D4
D4
00
00
ENDCHAR
STARTCHAR uni046D
ENCODING 1133
SWIDTH 461 0
DWIDTH 6 0
BBX 6 13 0 -2
BITMAP
00
00
00
00
00
FC
A8
90
F8
D4
D4
00
00
ENDCHAR
STARTCHAR uni046E
ENCODING 1134
SWIDTH 461 0
DWIDTH 6 0
BBX 6 13 0 -2
BITMAP
00
90
60
00
F0
88
08
70
08
08
70
80
60
ENDCHAR
STARTCHAR uni046F
ENCODING 1135
SWIDTH 461 0
DWIDTH 6 0
BBX 6 13 0 -2
BITMAP
00
90
60
00
00
F0
08
70
08
08
70
80
60
ENDCHAR
STARTCHAR uni0470
ENCODING 1136
SWIDTH 461 0
DWIDTH 6 0
BBX 6 13 0 -2
BITMAP
00
00
A8
A8
A8
A8
A8
70
20
20
20
00
00
ENDCHAR
STARTCHAR uni0471
ENCODING 1137
SWIDTH 461 0
DWIDTH 6 0
BBX 6 13 0 -2
BITMAP
00
00
00
00
20
A8
A8
A8
A8
70
20
20
20
ENDCHAR
STARTCHAR afii10147
ENCODING 1138
SWIDTH 461 0
DWIDTH 6 0
BBX 6 13 0 -2
BITMAP
00
00
70
88
88
88
F8
88
88
88
70
00
00
ENDCHAR
STARTCHAR afii10195
ENCODING 1139
SWIDTH 461 0
DWIDTH 6 0
BBX 6 13 0 -2
BITMAP
00
00
00
00
00
70
88
F8
88
88
70
00
00
ENDCHAR
STARTCHAR afii10148
ENCODING 1140
SWIDTH 461 0
DWIDTH 6 0
BBX 6 13 0 -2
BITMAP
00
00
84
88
88
50
50
50
20
20
20
00
00
ENDCHAR
STARTCHAR afii10196
ENCODING 1141
SWIDTH 461 0
DWIDTH 6 0
BBX 6 13 0 -2
BITMAP
00
00
00
00
00
88
90
50
50
20
20
00
00
ENDCHAR
STARTCHAR uni0476
ENCODING 1142
SWIDTH 461 0
DWIDTH 6 0
BBX 6 13 0 -2
BITMAP
00
90
48
00
84
88
88
50
50
20
20
00
00
ENDCHAR
STARTCHAR uni0477
ENCODING 1143
SWIDTH 461 0
DWIDTH 6 0
BBX 6 13 0 -2
BITMAP
00
90
48
00
00
88
90
50
50
20
20
00
00
ENDCHAR
STARTCHAR uni0478
ENCODING 1144
SWIDTH 461 0
DWIDTH 6 0
BBX 6 13 0 -2
BITMAP
00
00
40
A0
A0
A8
A8
A8
B8
A8
48
08
30
ENDCHAR
STARTCHAR uni0479
ENCODING 1145
SWIDTH 461 0
DWIDTH 6 0
BBX 6 13 0 -2
BITMAP
00
00
00
00
00
48
A8
A8
B8
A8
48
08
30
ENDCHAR
STARTCHAR uni047A
ENCODING 1146
SWIDTH 461 0
DWIDTH 6 0
BBX 6 13 0 -2
BITMAP
00
20
70
A8
88
88
88
88
88
A8
70
20
00
ENDCHAR
STARTCHAR uni047B
ENCODING 1147
SWIDTH 461 0
DWIDTH 6 0
BBX 6 13 0 -2
BITMAP
00
00
00
00
20
70
A8
88
88
A8
70
20
00
ENDCHAR
STARTCHAR uni047C
ENCODING 1148
SWIDTH 461 0
DWIDTH 6 0
BBX 6 13 0 -2
BITMAP
08
F8
80
00
50
88
88
A8
A8
A8
50
00
00
ENDCHAR
STARTCHAR uni047D
ENCODING 1149
SWIDTH 461 0
DWIDTH 6 0
BBX 6 13 0 -2
BITMAP
00
08
F8
80
00
50
88
A8
A8
A8
50
00
00
ENDCHAR
STARTCHAR uni047E
ENCODING 1150
SWIDTH 461 0
DWIDTH 6 0
BBX 6 13 0 -2
BITMAP
00
F8
A8
00
50
88
88
A8
A8
A8
50
00
00
ENDCHAR
STARTCHAR uni047F
ENCODING 1151
SWIDTH 461 0
DWIDTH 6 0
BBX 6 13 0 -2
BITMAP
00
00
F8
A8
00
50
88
A8
A8
A8
50
00
00
ENDCHAR
STARTCHAR uni0480
ENCODING 1152
SWIDTH 461 0
DWIDTH 6 0
BBX 6 13 0 -2
BITMAP
00
00
70
88
80
80
80
80
80
70
10
10
00
ENDCHAR
STARTCHAR uni0481
ENCODING 1153
SWIDTH 461 0
DWIDTH 6 0
BBX 6 13 0 -2
BITMAP
00
00
00
00
00
70
88
80
80
70
10
10
00
ENDCHAR
STARTCHAR uni0482
ENCODING 1154
SWIDTH 461 0
DWIDTH 6 0
BBX 6 13 0 -2
BITMAP
00
00
08
08
30
18
20
C0
60
80
80
00
00
ENDCHAR
STARTCHAR uni0483
ENCODING 1155
SWIDTH 461 0
DWIDTH 6 0
BBX 6 13 0 -2
BITMAP
00
08
F8
80
00
00
00
00
00
00
00
00
00
ENDCHAR
STARTCHAR uni0484
ENCODING 1156
SWIDTH 461 0
DWIDTH 6 0
BBX 6 13 0 -2
BITMAP
00
30
48
88
00
00
00
00
00
00
00
00
00
ENDCHAR
STARTCHAR uni0485
ENCODING 1157
SWIDTH 461 0
DWIDTH 6 0
BBX 6 13 0 -2
BITMAP
00
80
F8
80
00
00
00
00
00
00
00
00
00
ENDCHAR
STARTCHAR uni0486
ENCODING 1158
SWIDTH 461 0
DWIDTH 6 0
BBX 6 13 0 -2
BITMAP
00
08
F8
08
00
00
00
00
00
00
00
00
00
ENDCHAR
STARTCHAR uni0488
ENCODING 1160
SWIDTH 461 0
DWIDTH 6 0
BBX 6 13 0 -2
BITMAP
00
00
30
00
CC
00
00
00
00
00
CC
00
30
ENDCHAR
STARTCHAR uni0489
ENCODING 1161
SWIDTH 461 0
DWIDTH 6 0
BBX 6 13 0 -2
BITMAP
00
00
10
A0
8C
00
00
00
00
04
C4
10
20
ENDCHAR
STARTCHAR uni048C
ENCODING 1164
SWIDTH 461 0
DWIDTH 6 0
BBX 6 13 0 -2
BITMAP
00
40
E0
40
40
40
70
48
48
48
70
00
00
ENDCHAR
STARTCHAR uni048D
ENCODING 1165
SWIDTH 461 0
DWIDTH 6 0
BBX 6 13 0 -2
BITMAP
00
00
00
00
40
E0
40
70
48
48
70
00
00
ENDCHAR
STARTCHAR uni048E
ENCODING 1166
SWIDTH 461 0
DWIDTH 6 0
BBX 6 13 0 -2
BITMAP
00
00
F0
88
88
A8
F0
88
80
80
80
00
00
ENDCHAR
STARTCHAR uni048F
ENCODING 1167
SWIDTH 461 0
DWIDTH 6 0
BBX 6 13 0 -2
BITMAP
00
00
00
00
00
F0
88
88
A8
F0
88
80
80
ENDCHAR
STARTCHAR afii10050
ENCODING 1168
SWIDTH 461 0
DWIDTH 6 0
BBX 6 13 0 -2
BITMAP
00
08
F8
80
80
80
80
80
80
80
80
00
00
ENDCHAR
STARTCHAR afii10098
ENCODING 1169
SWIDTH 461 0
DWIDTH 6 0
BBX 6 13 0 -2
BITMAP
00
00
00
00
08
F8
80
80
80
80
80
00
00
ENDCHAR
STARTCHAR uni0492
ENCODING 1170
SWIDTH 461 0
DWIDTH 6 0
BBX 6 13 0 -2
BITMAP
00
00
78
40
40
40
E0
40
40
40
40
00
00
ENDCHAR
STARTCHAR uni0493
ENCODING 1171
SWIDTH 461 0
DWIDTH 6 0
BBX 6 13 0 -2
BITMAP
00
00
00
00
00
78
40
40
E0
40
40
00
00
ENDCHAR
STARTCHAR uni0494
ENCODING 1172
SWIDTH 461 0
DWIDTH 6 0
BBX 6 13 0 -2
BITMAP
00
00
F8
80
80
80
E0
90
90
90
90
10
20
ENDCHAR
STARTCHAR uni0495
ENCODING 1173
SWIDTH 461 0
DWIDTH 6 0
BBX 6 13 0 -2
BITMAP
00
00
00
00
00
F8
80
80
E0
90
90
10
20
ENDCHAR
STARTCHAR uni0496
ENCODING 1174
SWIDTH 461 0
DWIDTH 6 0
BBX 6 13 0 -2
BITMAP
00
00
A8
A8
A8
70
20
70
A8
A8
AC
04
00
ENDCHAR
STARTCHAR uni0497
ENCODING 1175
SWIDTH 461 0
DWIDTH 6 0
BBX 6 13 0 -2
BITMAP
00
00
00
00
00
A8
70
20
70
A8
AC
04
00
ENDCHAR
STARTCHAR uni0498
ENCODING 1176
SWIDTH 461 0
DWIDTH 6 0
BBX 6 13 0 -2
BITMAP
00
00
70
88
08
08
30
08
08
88
70
20
40
ENDCHAR
STARTCHAR uni0499
ENCODING 1177
SWIDTH 461 0
DWIDTH 6 0
BBX 6 13 0 -2
BITMAP
00
00
00
00
00
F0
08
70
08
08
F0
20
40
ENDCHAR
STARTCHAR uni049A
ENCODING 1178
SWIDTH 461 0
DWIDTH 6 0
BBX 6 13 0 -2
BITMAP
00
00
88
88
90
A0
C0
A0
90
88
8C
04
00
ENDCHAR
STARTCHAR uni049B
ENCODING 1179
SWIDTH 461 0
DWIDTH 6 0
BBX 6 13 0 -2
BITMAP
00
00
00
00
00
90
A0
C0
A0
90
8C
04
00
ENDCHAR
STARTCHAR uni049C
ENCODING 1180
SWIDTH 461 0
DWIDTH 6 0
BBX 6 13 0 -2
BITMAP
00
00
88
88
A8
B0
F0
B0
A8
88
88
00
00
ENDCHAR
STARTCHAR uni049D
ENCODING 1181
SWIDTH 461 0
DWIDTH 6 0
BBX 6 13 0 -2
BITMAP
00
00
00
00
00
A8
B0
E0
B0
A8
88
00
00
ENDCHAR
STARTCHAR uni049E
ENCODING 1182
SWIDTH 461 0
DWIDTH 6 0
BBX 6 13 0 -2
BITMAP
00
00
48
E8
50
60
60
50
48
48
48
00
00
ENDCHAR
STARTCHAR uni049F
ENCODING 1183
SWIDTH 461 0
DWIDTH 6 0
BBX 6 13 0 -2
BITMAP
00
00
40
E0
40
48
50
60
50
48
48
00
00
ENDCHAR
STARTCHAR uni04A0
ENCODING 1184
SWIDTH 461 0
DWIDTH 6 0
BBX 6 13 0 -2
BITMAP
00
00
C8
48
50
60
60
50
48
48
48
00
00
ENDCHAR
STARTCHAR uni04A1
ENCODING 1185
SWIDTH 461 0
DWIDTH 6 0
BBX 6 13 0 -2
BITMAP
00
00
00
00
00
C8
50
60
50
48
48
00
00
ENDCHAR
STARTCHAR uni04A2
ENCODING 1186
SWIDTH 461 0
DWIDTH 6 0
BBX 6 13 0 -2
BITMAP
00
00
88
88
88
88
F8
88
88
88
8C
04
00
ENDCHAR
STARTCHAR uni04A3
ENCODING 1187
SWIDTH 461 0
DWIDTH 6 0
BBX 6 13 0 -2
BITMAP
00
00
00
00
00
88
88
F8
88
88
8C
04
00
ENDCHAR
STARTCHAR uni04A4
ENCODING 1188
SWIDTH 461 0
DWIDTH 6 0
BBX 6 13 0 -2
BITMAP
00
00
9C
90
90
90
F0
90
90
90
90
00
00
ENDCHAR
STARTCHAR uni04A5
ENCODING 1189
SWIDTH 461 0
DWIDTH 6 0
BBX 6 13 0 -2
BITMAP
00
00
00
00
00
9C
90
F0
90
90
90
00
00
ENDCHAR
STARTCHAR uni04A6
ENCODING 1190
SWIDTH 461 0
DWIDTH 6 0
BBX 6 13 0 -2
BITMAP
00
00
F0
90
90
90
98
94
94
94
94
04
08
ENDCHAR
STARTCHAR uni04A7
ENCODING 1191
SWIDTH 461 0
DWIDTH 6 0
BBX 6 13 0 -2
BITMAP
00
00
00
00
00
F0
90
90
98
94
94
04
08
ENDCHAR
STARTCHAR uni04A8
ENCODING 1192
SWIDTH 461 0
DWIDTH 6 0
BBX 6 13 0 -2
BITMAP
00
00
70
88
80
90
A8
A8
A8
A8
70
08
00
ENDCHAR
STARTCHAR uni04A9
ENCODING 1193
SWIDTH 461 0
DWIDTH 6 0
BBX 6 13 0 -2
BITMAP
00
00
00
00
00
70
80
90
A8
A8
70
08
00
ENDCHAR
STARTCHAR uni04AA
ENCODING 1194
SWIDTH 461 0
DWIDTH 6 0
BBX 6 13 0 -2
BITMAP
00
00
70
88
80
80
80
80
80
88
70
20
40
ENDCHAR
STARTCHAR uni04AB
ENCODING 1195
SWIDTH 461 0
DWIDTH 6 0
BBX 6 13 0 -2
BITMAP
00
00
00
00
00
70
88
80
80
88
70
20
40
ENDCHAR
STARTCHAR uni04AC
ENCODING 1196
SWIDTH 461 0
DWIDTH 6 0
BBX 6 13 0 -2
BITMAP
00
00
F8
20
20
20
20
20
20
20
30
10
00
ENDCHAR
STARTCHAR uni04AD
ENCODING 1197
SWIDTH 461 0
DWIDTH 6 0
BBX 6 13 0 -2
BITMAP
00
00
00
00
00
F8
20
20
20
20
30
10
00
ENDCHAR
STARTCHAR uni04AE
ENCODING 1198
SWIDTH 461 0
DWIDTH 6 0
BBX 6 13 0 -2
BITMAP
00
00
88
88
50
50
20
20
20
20
20
00
00
ENDCHAR
STARTCHAR uni04AF
ENCODING 1199
SWIDTH 461 0
DWIDTH 6 0
BBX 6 13 0 -2
BITMAP
00
00
00
00
00
88
88
88
50
50
20
20
20
ENDCHAR
STARTCHAR uni04B0
ENCODING 1200
SWIDTH 461 0
DWIDTH 6 0
BBX 6 13 0 -2
BITMAP
00
00
88
88
50
50
20
F8
20
20
20
00
00
ENDCHAR
STARTCHAR uni04B1
ENCODING 1201
SWIDTH 461 0
DWIDTH 6 0
BBX 6 13 0 -2
BITMAP
00
00
00
00
00
88
88
88
50
50
20
F8
20
ENDCHAR
STARTCHAR uni04B2
ENCODING 1202
SWIDTH 461 0
DWIDTH 6 0
BBX 6 13 0 -2
BITMAP
00
00
88
88
50
50
20
50
50
88
8C
04
00
ENDCHAR
STARTCHAR uni04B3
ENCODING 1203
SWIDTH 461 0
DWIDTH 6 0
BBX 6 13 0 -2
BITMAP
00
00
00
00
00
88
50
20
20
50
8C
04
00
ENDCHAR
STARTCHAR uni04B4
ENCODING 1204
SWIDTH 461 0
DWIDTH 6 0
BBX 6 13 0 -2
BITMAP
00
00
E8
48
48
48
48
48
48
48
7C
04
00
ENDCHAR
STARTCHAR uni04B5
ENCODING 1205
SWIDTH 461 0
DWIDTH 6 0
BBX 6 13 0 -2
BITMAP
00
00
00
00
00
E8
48
48
48
48
7C
04
00
ENDCHAR
STARTCHAR uni04B6
ENCODING 1206
SWIDTH 461 0
DWIDTH 6 0
BBX 6 13 0 -2
BITMAP
00
00
88
88
88
88
78
08
08
08
0C
04
00
ENDCHAR
STARTCHAR uni04B7
ENCODING 1207
SWIDTH 461 0
DWIDTH 6 0
BBX 6 13 0 -2
BITMAP
00
00
00
00
00
88
88
88
78
08
0C
04
00
ENDCHAR
STARTCHAR uni04B8
ENCODING 1208
SWIDTH 461 0
DWIDTH 6 0
BBX 6 13 0 -2
BITMAP
00
00
88
88
A8
A8
78
28
28
08
08
00
00
ENDCHAR
STARTCHAR uni04B9
ENCODING 1209
SWIDTH 461 0
DWIDTH 6 0
BBX 6 13 0 -2
BITMAP
00
00
00
00
00
88
88
A8
78
28
08
00
00
ENDCHAR
STARTCHAR uni04BA
ENCODING 1210
SWIDTH 461 0
DWIDTH 6 0
BBX 6 13 0 -2
BITMAP
00
00
80
80
80
80
F0
88
88
88
88
00
00
ENDCHAR
STARTCHAR uni04BB
ENCODING 1211
SWIDTH 461 0
DWIDTH 6 0
BBX 6 13 0 -2
BITMAP
00
00
00
00
00
80
80
F0
88
88
88
00
00
ENDCHAR
STARTCHAR uni04BC
ENCODING 1212
SWIDTH 461 0
DWIDTH 6 0
BBX 6 13 0 -2
BITMAP
00
00
30
48
C8
C8
78
40
40
48
30
00
00
ENDCHAR
STARTCHAR uni04BD
ENCODING 1213
SWIDTH 461 0
DWIDTH 6 0
BBX 6 13 0 -2
BITMAP
00
00
00
00
00
B0
C8
78
40
48
30
00
00
ENDCHAR
STARTCHAR uni04BE
ENCODING 1214
SWIDTH 461 0
DWIDTH 6 0
BBX 6 13 0 -2
BITMAP
00
00
30
48
C8
C8
78
40
40
48
30
20
10
ENDCHAR
STARTCHAR uni04BF
ENCODING 1215
SWIDTH 461 0
DWIDTH 6 0
BBX 6 13 0 -2
BITMAP
00
00
00
00
00
B0
C8
78
40
48
30
20
10
ENDCHAR
STARTCHAR uni04C0
ENCODING 1216
SWIDTH 461 0
DWIDTH 6 0
BBX 6 13 0 -2
BITMAP
00
00
70
20
20
20
20
20
20
20
70
00
00
ENDCHAR
STARTCHAR uni04C1
ENCODING 1217
SWIDTH 461 0
DWIDTH 6 0
BBX 6 13 0 -2
BITMAP
00
88
70
00
A8
A8
70
70
A8
A8
A8
00
00
ENDCHAR
STARTCHAR uni04C2
ENCODING 1218
SWIDTH 461 0
DWIDTH 6 0
BBX 6 13 0 -2
BITMAP
00
00
88
70
00
A8
70
20
70
A8
A8
00
00
ENDCHAR
STARTCHAR uni04C3
ENCODING 1219
SWIDTH 461 0
DWIDTH 6 0
BBX 6 13 0 -2
BITMAP
00
00
88
88
90
A0
C0
A0
90
88
88
08
30
ENDCHAR
STARTCHAR uni04C4
ENCODING 1220
SWIDTH 461 0
DWIDTH 6 0
BBX 6 13 0 -2
BITMAP
00
00
00
00
00
90
A0
C0
A0
90
88
08
30
ENDCHAR
STARTCHAR uni04C7
ENCODING 1223
SWIDTH 461 0
DWIDTH 6 0
BBX 6 13 0 -2
BITMAP
00
00
88
88
88
88
F8
88
88
88
88
08
30
ENDCHAR
STARTCHAR uni04C8
ENCODING 1224
SWIDTH 461 0
DWIDTH 6 0
BBX 6 13 0 -2
BITMAP
00
00
00
00
00
88
88
F8
88
88
88
08
30
ENDCHAR
STARTCHAR uni04CB
ENCODING 1227
SWIDTH 461 0
DWIDTH 6 0
BBX 6 13 0 -2
BITMAP
00
00
88
88
88
88
78
08
08
08
18
10
00
ENDCHAR
STARTCHAR uni04CC
ENCODING 1228
SWIDTH 461 0
DWIDTH 6 0
BBX 6 13 0 -2
BITMAP
00
00
00
00
00
88
88
88
78
08
18
10
00
ENDCHAR
STARTCHAR uni04D0
ENCODING 1232
SWIDTH 461 0
DWIDTH 6 0
BBX 6 13 0 -2
BITMAP
00
88
70
00
20
50
88
88
F8
88
88
00
00
ENDCHAR
STARTCHAR uni04D1
ENCODING 1233
SWIDTH 461 0
DWIDTH 6 0
BBX 6 13 0 -2
BITMAP
00
00
88
70
00
70
08
78
88
88
78
00
00
ENDCHAR
STARTCHAR uni04D2
ENCODING 1234
SWIDTH 461 0
DWIDTH 6 0
BBX 6 13 0 -2
BITMAP
00
50
50
00
20
50
88
88
f8
88
88
00
00
ENDCHAR
STARTCHAR uni04D3
ENCODING 1235
SWIDTH 461 0
DWIDTH 6 0
BBX 6 13 0 -2
BITMAP
00
50
50
00
00
70
08
78
88
98
68
00
00
ENDCHAR
STARTCHAR uni04D4
ENCODING 1236
SWIDTH 461 0
DWIDTH 6 0
BBX 6 13 0 -2
BITMAP
00
00
58
a0
a0
a0
b0
e0
a0
a0
b8
00
00
ENDCHAR
STARTCHAR uni04D5
ENCODING 1237
SWIDTH 461 0
DWIDTH 6 0
BBX 6 13 0 -2
BITMAP
00
00
00
00
00
70
28
70
a0
a8
50
00
00
ENDCHAR
STARTCHAR uni04D6
ENCODING 1238
SWIDTH 461 0
DWIDTH 6 0
BBX 6 13 0 -2
BITMAP
00
88
70
00
F8
80
80
F0
80
80
F8
00
00
ENDCHAR
STARTCHAR uni04D7
ENCODING 1239
SWIDTH 461 0
DWIDTH 6 0
BBX 6 13 0 -2
BITMAP
00
00
88
70
00
70
88
F8
80
88
70
00
00
ENDCHAR
STARTCHAR uni04D8
ENCODING 1240
SWIDTH 461 0
DWIDTH 6 0
BBX 6 13 0 -2
BITMAP
00
00
70
88
08
08
F8
88
88
88
70
00
00
ENDCHAR
STARTCHAR uni04D9
ENCODING 1241
SWIDTH 461 0
DWIDTH 6 0
BBX 6 13 0 -2
BITMAP
00
00
00
00
00
70
88
08
F8
88
70
00
00
ENDCHAR
STARTCHAR uni04DA
ENCODING 1242
SWIDTH 461 0
DWIDTH 6 0
BBX 6 13 0 -2
BITMAP
00
50
50
00
70
88
08
F8
88
88
70
00
00
ENDCHAR
STARTCHAR uni04DB
ENCODING 1243
SWIDTH 461 0
DWIDTH 6 0
BBX 6 13 0 -2
BITMAP
00
50
50
00
00
70
88
08
F8
88
70
00
00
ENDCHAR
STARTCHAR uni04DC
ENCODING 1244
SWIDTH 461 0
DWIDTH 6 0
BBX 6 13 0 -2
BITMAP
00
50
50
00
A8
A8
70
70
A8
A8
A8
00
00
ENDCHAR
STARTCHAR uni04DD
ENCODING 1245
SWIDTH 461 0
DWIDTH 6 0
BBX 6 13 0 -2
BITMAP
00
50
50
00
00
A8
70
20
70
A8
A8
00
00
ENDCHAR
STARTCHAR uni04DE
ENCODING 1246
SWIDTH 461 0
DWIDTH 6 0
BBX 6 13 0 -2
BITMAP
00
50
50
00
70
88
08
30
08
88
70
00
00
ENDCHAR
STARTCHAR uni04DF
ENCODING 1247
SWIDTH 461 0
DWIDTH 6 0
BBX 6 13 0 -2
BITMAP
00
50
50
00
00
F0
08
70
08
08
F0
00
00
ENDCHAR
STARTCHAR uni04E0
ENCODING 1248
SWIDTH 461 0
DWIDTH 6 0
BBX 6 13 0 -2
BITMAP
00
00
F8
08
10
20
70
08
08
88
70
00
00
ENDCHAR
STARTCHAR uni04E1
ENCODING 1249
SWIDTH 461 0
DWIDTH 6 0
BBX 6 13 0 -2
BITMAP
00
00
00
00
00
F8
10
20
70
08
08
88
70
ENDCHAR
STARTCHAR uni04E2
ENCODING 1250
SWIDTH 461 0
DWIDTH 6 0
BBX 6 13 0 -2
BITMAP
00
00
F8
00
88
98
98
A8
C8
C8
88
00
00
ENDCHAR
STARTCHAR uni04E3
ENCODING 1251
SWIDTH 461 0
DWIDTH 6 0
BBX 6 13 0 -2
BITMAP
00
00
00
F8
00
88
88
98
A8
C8
88
00
00
ENDCHAR
STARTCHAR uni04E4
ENCODING 1252
SWIDTH 461 0
DWIDTH 6 0
BBX 6 13 0 -2
BITMAP
00
50
50
00
88
98
98
A8
C8
C8
88
00
00
ENDCHAR
STARTCHAR uni04E5
ENCODING 1253
SWIDTH 461 0
DWIDTH 6 0
BBX 6 13 0 -2
BITMAP
00
50
50
00
00
88
88
98
A8
C8
88
00
00
ENDCHAR
STARTCHAR uni04E6
ENCODING 1254
SWIDTH 461 0
DWIDTH 6 0
BBX 6 13 0 -2
BITMAP
00
50
50
00
70
88
88
88
88
88
70
00
00
ENDCHAR
STARTCHAR uni04E7
ENCODING 1255
SWIDTH 461 0
DWIDTH 6 0
BBX 6 13 0 -2
BITMAP
00
50
50
00
00
70
88
88
88
88
70
00
00
ENDCHAR
STARTCHAR uni04E8
ENCODING 1256
SWIDTH 461 0
DWIDTH 6 0
BBX 6 13 0 -2
BITMAP
00
00
70
88
88
88
F8
88
88
88
70
00
00
ENDCHAR
STARTCHAR uni04E9
ENCODING 1257
SWIDTH 461 0
DWIDTH 6 0
BBX 6 13 0 -2
BITMAP
00
00
00
00
00
70
88
F8
88
88
70
00
00
ENDCHAR
STARTCHAR uni04EA
ENCODING 1258
SWIDTH 461 0
DWIDTH 6 0
BBX 6 13 0 -2
BITMAP
00
50
50
00
70
88
88
F8
88
88
70
00
00
ENDCHAR
STARTCHAR uni04EB
ENCODING 1259
SWIDTH 461 0
DWIDTH 6 0
BBX 6 13 0 -2
BITMAP
00
00
50
50
00
70
88
F8
88
88
70
00
00
ENDCHAR
STARTCHAR uni04EC
ENCODING 1260
SWIDTH 461 0
DWIDTH 6 0
BBX 6 13 0 -2
BITMAP
00
50
50
00
70
88
08
38
08
88
70
00
00
ENDCHAR
STARTCHAR uni04ED
ENCODING 1261
SWIDTH 461 0
DWIDTH 6 0
BBX 6 13 0 -2
BITMAP
00
50
50
00
00
70
88
38
08
88
70
00
00
ENDCHAR
STARTCHAR uni04EE
ENCODING 1262
SWIDTH 461 0
DWIDTH 6 0
BBX 6 13 0 -2
BITMAP
00
00
F8
00
88
88
88
78
08
88
70
00
00
ENDCHAR
STARTCHAR uni04EF
ENCODING 1263
SWIDTH 461 0
DWIDTH 6 0
BBX 6 13 0 -2
BITMAP
00
00
00
F8
00
88
88
88
98
68
08
88
70
ENDCHAR
STARTCHAR uni04F0
ENCODING 1264
SWIDTH 461 0
DWIDTH 6 0
BBX 6 13 0 -2
BITMAP
00
50
50
00
88
88
88
78
08
88
70
00
00
ENDCHAR
STARTCHAR uni04F1
ENCODING 1265
SWIDTH 461 0
DWIDTH 6 0
BBX 6 13 0 -2
BITMAP
00
50
50
00
00
88
88
88
98
68
08
88
70
ENDCHAR
STARTCHAR uni04F2
ENCODING 1266
SWIDTH 461 0
DWIDTH 6 0
BBX 6 13 0 -2
BITMAP
00
48
90
00
88
88
88
78
08
88
70
00
00
ENDCHAR
STARTCHAR uni04F3
ENCODING 1267
SWIDTH 461 0
DWIDTH 6 0
BBX 6 13 0 -2
BITMAP
00
48
90
00
00
88
88
88
98
68
08
88
70
ENDCHAR
STARTCHAR uni04F4
ENCODING 1268
SWIDTH 461 0
DWIDTH 6 0
BBX 6 13 0 -2
BITMAP
00
50
50
00
88
88
88
78
08
08
08
00
00
ENDCHAR
STARTCHAR uni04F5
ENCODING 1269
SWIDTH 461 0
DWIDTH 6 0
BBX 6 13 0 -2
BITMAP
00
50
50
00
00
88
88
88
78
08
08
00
00
ENDCHAR
STARTCHAR uni04F8
ENCODING 1272
SWIDTH 461 0
DWIDTH 6 0
BBX 6 13 0 -2
BITMAP
00
50
50
00
88
88
C8
A8
A8
A8
C8
00
00
ENDCHAR
STARTCHAR uni04F9
ENCODING 1273
SWIDTH 461 0
DWIDTH 6 0
BBX 6 13 0 -2
BITMAP
00
50
50
00
00
88
88
C8
A8
A8
C8
00
00
ENDCHAR
ENDFONT
